<svg width="55" height="54" viewBox="0 0 55 54" fill="none" xmlns="http://www.w3.org/2000/svg">
    <ellipse cx="27.5" cy="27" rx="27.5" ry="27" fill="url(#paint0_radial_2205_1977)"/>
    <path d="M34.2969 14C32.7232 14 31.2805 14.5064 30.0088 15.5052C28.7896 16.4628 27.9779 17.6825 27.5 18.5693C27.0221 17.6824 26.2104 16.4628 24.9912 15.5052C23.7195 14.5064 22.2768 14 20.7031 14C16.3117 14 13 17.6479 13 22.4853C13 27.7114 17.1315 31.2871 23.3861 36.7001C24.4483 37.6193 25.6522 38.6613 26.9035 39.7726C27.0684 39.9192 27.2802 40 27.5 40C27.7198 40 27.9316 39.9192 28.0965 39.7726C29.348 38.6612 30.5518 37.6193 31.6145 36.6995C37.8685 31.2871 42 27.7114 42 22.4853C42 17.6479 38.6883 14 34.2969 14Z" fill="#FDFEFE"/>
    <defs>
        <radialGradient id="paint0_radial_2205_1977" cx="0" cy="0" r="1" gradientUnits="userSpaceOnUse" gradientTransform="translate(53.9305 0.843829) rotate(137.74) scale(143.157 1362.22)">
            <stop stop-color="#FF627E"/>
            <stop offset="0.9999" stop-color="#F4CD76"/>
            <stop offset="1" stop-color="#FFF8F8" stop-opacity="0"/>
        </radialGradient>
    </defs>
</svg>
