<svg width="18" height="18" viewBox="0 0 18 18" fill="none" xmlns="http://www.w3.org/2000/svg">
    <path d="M8.24103 0.794815V2.30107C15.1661 3.90311 19.4181 11.1596 17.5655 17.6784C17.4189 18.1944 16.6521 18.0547 16.6963 17.5067C17.0852 12.6895 14.219 8.56993 8.24103 8.09329V9.59191C8.24103 10.2208 7.55673 10.5998 7.03817 10.2582L0.356047 5.85967C0.246781 5.78767 0.156959 5.68898 0.0947695 5.5726C0.0325798 5.45622 0 5.32584 0 5.19336C0 5.06088 0.0325798 4.93051 0.0947695 4.81413C0.156959 4.69774 0.246781 4.59906 0.356047 4.52706L7.03779 0.128507C7.55673 -0.213042 8.24103 0.166288 8.24103 0.794815Z" fill="url(#paint0_radial_2192_1973)"/>
    <defs>
        <radialGradient id="paint0_radial_2192_1973" cx="0" cy="0" r="1" gradientUnits="userSpaceOnUse" gradientTransform="translate(17.65 0.281276) rotate(137.217) scale(47.2458 450.282)">
            <stop stop-color="#FF627E"/>
            <stop offset="0.9999" stop-color="#F4CD76"/>
            <stop offset="1" stop-color="#FFF8F8" stop-opacity="0"/>
        </radialGradient>
    </defs>
</svg>