<svg width="38" height="38" viewBox="0 0 38 38" fill="none" xmlns="http://www.w3.org/2000/svg">
    <circle cx="19" cy="19" r="19" fill="#FDFEFE"/>
    <path d="M18.241 10.7948V12.3011C25.1661 13.9031 29.4181 21.1596 27.5655 27.6784C27.4189 28.1944 26.6521 28.0547 26.6963 27.5067C27.0852 22.6895 24.219 18.5699 18.241 18.0933V19.5919C18.241 20.2208 17.5567 20.5998 17.0382 20.2582L10.356 15.8597C10.2468 15.7877 10.157 15.689 10.0948 15.5726C10.0326 15.4562 10 15.3258 10 15.1934C10 15.0609 10.0326 14.9305 10.0948 14.8141C10.157 14.6977 10.2468 14.5991 10.356 14.5271L17.0378 10.1285C17.5567 9.78696 18.241 10.1663 18.241 10.7948Z" fill="url(#paint0_radial_2211_1971)"/>
    <defs>
        <radialGradient id="paint0_radial_2211_1971" cx="0" cy="0" r="1" gradientUnits="userSpaceOnUse" gradientTransform="translate(27.65 10.2813) rotate(137.217) scale(47.2458 450.282)">
            <stop stop-color="#FF627E"/>
            <stop offset="0.9999" stop-color="#F4CD76"/>
            <stop offset="1" stop-color="#FFF8F8" stop-opacity="0"/>
        </radialGradient>
    </defs>
</svg>
