<svg width="276" height="378" viewBox="0 0 276 378" fill="none" xmlns="http://www.w3.org/2000/svg">
    <path d="M16.0911 324H13.2711V308.916H5.24309V324H2.42309V306.72H16.0911V324ZM25.9206 318.648C25.0006 318.68 24.2246 318.756 23.5926 318.876C22.9606 318.988 22.4486 319.136 22.0566 319.32C21.6646 319.496 21.3806 319.708 21.2046 319.956C21.0366 320.204 20.9526 320.476 20.9526 320.772C20.9526 321.06 20.9966 321.308 21.0846 321.516C21.1806 321.716 21.3086 321.884 21.4686 322.02C21.6366 322.148 21.8286 322.244 22.0446 322.308C22.2686 322.364 22.5126 322.392 22.7766 322.392C23.4486 322.392 24.0246 322.268 24.5046 322.02C24.9926 321.764 25.4646 321.396 25.9206 320.916V318.648ZM19.0806 313.464C20.4646 312.176 22.1126 311.532 24.0246 311.532C24.7286 311.532 25.3526 311.648 25.8966 311.88C26.4486 312.104 26.9086 312.424 27.2766 312.84C27.6526 313.256 27.9366 313.752 28.1286 314.328C28.3286 314.896 28.4286 315.528 28.4286 316.224V324H27.2766C27.0286 324 26.8406 323.964 26.7126 323.892C26.5846 323.812 26.4766 323.656 26.3886 323.424L26.1366 322.428C25.8246 322.708 25.5166 322.96 25.2126 323.184C24.9086 323.4 24.5926 323.584 24.2646 323.736C23.9446 323.888 23.5966 324 23.2206 324.072C22.8526 324.152 22.4446 324.192 21.9966 324.192C21.5006 324.192 21.0366 324.124 20.6046 323.988C20.1806 323.852 19.8126 323.648 19.5006 323.376C19.1886 323.096 18.9406 322.752 18.7566 322.344C18.5806 321.936 18.4926 321.456 18.4926 320.904C18.4926 320.432 18.6166 319.972 18.8646 319.524C19.1206 319.076 19.5366 318.676 20.1126 318.324C20.6966 317.964 21.4606 317.668 22.4046 317.436C23.3566 317.204 24.5286 317.072 25.9206 317.04V316.224C25.9206 315.344 25.7326 314.688 25.3566 314.256C24.9806 313.824 24.4286 313.608 23.7006 313.608C23.2046 313.608 22.7886 313.672 22.4526 313.8C22.1166 313.92 21.8246 314.052 21.5766 314.196C21.3286 314.34 21.1086 314.476 20.9166 314.604C20.7246 314.724 20.5206 314.784 20.3046 314.784C20.1286 314.784 19.9766 314.74 19.8486 314.652C19.7286 314.556 19.6286 314.44 19.5486 314.304L19.0806 313.464ZM36.3109 322.212C37.0149 322.212 37.5709 322.044 37.9789 321.708C38.3949 321.364 38.6029 320.904 38.6029 320.328C38.6029 320.08 38.5669 319.848 38.4949 319.632C38.4229 319.416 38.2989 319.232 38.1229 319.08C37.9469 318.92 37.7109 318.796 37.4149 318.708C37.1269 318.62 36.7629 318.576 36.3229 318.576H33.9109V322.212H36.3109ZM33.9109 313.464V316.956H36.0349C36.3549 316.956 36.6469 316.912 36.9109 316.824C37.1829 316.728 37.4149 316.6 37.6069 316.44C37.8069 316.272 37.9589 316.076 38.0629 315.852C38.1749 315.62 38.2309 315.364 38.2309 315.084C38.2309 314.884 38.1949 314.688 38.1229 314.496C38.0509 314.296 37.9269 314.12 37.7509 313.968C37.5829 313.816 37.3589 313.696 37.0789 313.608C36.7989 313.512 36.4509 313.464 36.0349 313.464H33.9109ZM36.1189 311.76C36.8789 311.76 37.5349 311.836 38.0869 311.988C38.6389 312.132 39.0909 312.336 39.4429 312.6C39.8029 312.864 40.0669 313.176 40.2349 313.536C40.4029 313.896 40.4869 314.284 40.4869 314.7C40.4869 314.964 40.4509 315.24 40.3789 315.528C40.3069 315.816 40.1829 316.092 40.0069 316.356C39.8309 316.612 39.5909 316.848 39.2869 317.064C38.9909 317.28 38.6109 317.448 38.1469 317.568C39.0189 317.728 39.7069 318.048 40.2109 318.528C40.7229 319 40.9789 319.632 40.9789 320.424C40.9789 321.032 40.8549 321.56 40.6069 322.008C40.3589 322.456 40.0189 322.828 39.5869 323.124C39.1629 323.42 38.6669 323.64 38.0989 323.784C37.5389 323.928 36.9469 324 36.3229 324H31.4509V311.76H36.1189ZM51.4555 316.5C51.4555 316.068 51.3915 315.668 51.2635 315.3C51.1435 314.924 50.9635 314.6 50.7235 314.328C50.4835 314.048 50.1835 313.832 49.8235 313.68C49.4715 313.52 49.0635 313.44 48.5995 313.44C47.6635 313.44 46.9275 313.708 46.3915 314.244C45.8555 314.78 45.5155 315.532 45.3715 316.5H51.4555ZM45.2995 318.084C45.3315 318.78 45.4395 319.384 45.6235 319.896C45.8075 320.4 46.0515 320.82 46.3555 321.156C46.6675 321.492 47.0355 321.744 47.4595 321.912C47.8915 322.072 48.3715 322.152 48.8995 322.152C49.4035 322.152 49.8395 322.096 50.2075 321.984C50.5755 321.864 50.8955 321.736 51.1675 321.6C51.4395 321.456 51.6715 321.328 51.8635 321.216C52.0555 321.096 52.2315 321.036 52.3915 321.036C52.5995 321.036 52.7595 321.116 52.8715 321.276L53.6035 322.224C53.2995 322.584 52.9555 322.888 52.5715 323.136C52.1875 323.384 51.7795 323.588 51.3475 323.748C50.9155 323.9 50.4715 324.008 50.0155 324.072C49.5595 324.144 49.1155 324.18 48.6835 324.18C47.8355 324.18 47.0475 324.04 46.3195 323.76C45.5995 323.472 44.9715 323.052 44.4355 322.5C43.9075 321.948 43.4915 321.264 43.1875 320.448C42.8915 319.632 42.7435 318.692 42.7435 317.628C42.7435 316.78 42.8755 315.988 43.1395 315.252C43.4115 314.516 43.7955 313.876 44.2915 313.332C44.7955 312.788 45.4035 312.36 46.1155 312.048C46.8355 311.728 47.6475 311.568 48.5515 311.568C49.3035 311.568 49.9995 311.692 50.6395 311.94C51.2795 312.18 51.8315 312.536 52.2955 313.008C52.7595 313.48 53.1195 314.06 53.3755 314.748C53.6395 315.428 53.7715 316.204 53.7715 317.076C53.7715 317.476 53.7275 317.744 53.6395 317.88C53.5515 318.016 53.3915 318.084 53.1595 318.084H45.2995ZM67.2415 324H64.6615V313.764H61.2535C61.1575 315.292 61.0095 316.612 60.8095 317.724C60.6175 318.828 60.3855 319.764 60.1135 320.532C59.8415 321.3 59.5375 321.924 59.2015 322.404C58.8655 322.876 58.5095 323.244 58.1335 323.508C57.7575 323.772 57.3695 323.948 56.9695 324.036C56.5775 324.124 56.1815 324.168 55.7815 324.168C55.0055 324.168 54.6175 324.04 54.6175 323.784V322.164H55.2895C55.5535 322.164 55.8215 322.12 56.0935 322.032C56.3735 321.944 56.6415 321.772 56.8975 321.516C57.1535 321.252 57.3975 320.884 57.6295 320.412C57.8695 319.94 58.0855 319.32 58.2775 318.552C58.4775 317.776 58.6495 316.836 58.7935 315.732C58.9375 314.62 59.0495 313.296 59.1295 311.76H67.2415V324ZM86.5932 321.564C86.8732 321.564 87.0932 321.648 87.2532 321.816C87.4132 321.976 87.4932 322.184 87.4932 322.44V324H75.8052V323.124C75.8052 322.948 75.8412 322.764 75.9132 322.572C75.9852 322.38 76.1012 322.204 76.2612 322.044L81.6372 316.656C82.0932 316.2 82.4972 315.764 82.8492 315.348C83.2092 314.932 83.5132 314.516 83.7612 314.1C84.0172 313.684 84.2092 313.264 84.3372 312.84C84.4732 312.408 84.5412 311.956 84.5412 311.484C84.5412 311.028 84.4692 310.628 84.3252 310.284C84.1892 309.932 83.9972 309.644 83.7492 309.42C83.5092 309.188 83.2172 309.016 82.8732 308.904C82.5372 308.784 82.1652 308.724 81.7572 308.724C81.3652 308.724 81.0012 308.78 80.6652 308.892C80.3372 309.004 80.0412 309.16 79.7772 309.36C79.5212 309.56 79.3052 309.8 79.1292 310.08C78.9612 310.352 78.8372 310.652 78.7572 310.98C78.6372 311.308 78.4812 311.528 78.2892 311.64C78.1052 311.752 77.8332 311.776 77.4732 311.712L76.1172 311.472C76.2372 310.656 76.4612 309.94 76.7892 309.324C77.1252 308.708 77.5452 308.196 78.0492 307.788C78.5532 307.372 79.1292 307.06 79.7772 306.852C80.4332 306.636 81.1412 306.528 81.9012 306.528C82.6692 306.528 83.3732 306.644 84.0132 306.876C84.6612 307.1 85.2172 307.424 85.6812 307.848C86.1532 308.264 86.5212 308.772 86.7852 309.372C87.0492 309.972 87.1812 310.648 87.1812 311.4C87.1812 312.04 87.0852 312.632 86.8932 313.176C86.7092 313.72 86.4572 314.24 86.1372 314.736C85.8172 315.232 85.4412 315.716 85.0092 316.188C84.5852 316.652 84.1372 317.124 83.6652 317.604L79.4892 321.876C79.8332 321.78 80.1772 321.704 80.5212 321.648C80.8732 321.592 81.2052 321.564 81.5172 321.564H86.5932ZM90.123 311.472C90.243 310.656 90.467 309.94 90.795 309.324C91.131 308.708 91.551 308.196 92.055 307.788C92.559 307.372 93.135 307.06 93.783 306.852C94.439 306.636 95.147 306.528 95.907 306.528C96.675 306.528 97.371 306.64 97.995 306.864C98.627 307.08 99.167 307.384 99.615 307.776C100.071 308.168 100.419 308.636 100.659 309.18C100.907 309.724 101.031 310.32 101.031 310.968C101.031 311.52 100.963 312.008 100.827 312.432C100.699 312.848 100.511 313.216 100.263 313.536C100.023 313.856 99.727 314.124 99.375 314.34C99.023 314.556 98.627 314.736 98.187 314.88C99.259 315.192 100.063 315.692 100.599 316.38C101.135 317.06 101.403 317.916 101.403 318.948C101.403 319.78 101.247 320.52 100.935 321.168C100.623 321.816 100.199 322.364 99.663 322.812C99.135 323.26 98.515 323.604 97.803 323.844C97.099 324.076 96.351 324.192 95.559 324.192C94.671 324.192 93.903 324.088 93.255 323.88C92.607 323.664 92.047 323.36 91.575 322.968C91.111 322.568 90.723 322.088 90.411 321.528C90.099 320.968 89.835 320.34 89.619 319.644L90.735 319.176C91.031 319.048 91.311 319.012 91.575 319.068C91.847 319.124 92.043 319.272 92.163 319.512C92.291 319.768 92.435 320.044 92.595 320.34C92.755 320.628 92.959 320.896 93.207 321.144C93.463 321.384 93.775 321.588 94.143 321.756C94.519 321.916 94.979 321.996 95.523 321.996C96.075 321.996 96.555 321.908 96.963 321.732C97.379 321.548 97.723 321.316 97.995 321.036C98.275 320.748 98.483 320.428 98.619 320.076C98.755 319.724 98.823 319.376 98.823 319.032C98.823 318.6 98.771 318.204 98.667 317.844C98.563 317.476 98.359 317.164 98.055 316.908C97.759 316.652 97.335 316.452 96.783 316.308C96.239 316.156 95.523 316.08 94.635 316.08V314.22C95.363 314.212 95.975 314.14 96.471 314.004C96.975 313.86 97.375 313.668 97.671 313.428C97.975 313.18 98.191 312.884 98.319 312.54C98.455 312.196 98.523 311.82 98.523 311.412C98.523 310.972 98.455 310.584 98.319 310.248C98.183 309.912 97.991 309.632 97.743 309.408C97.503 309.176 97.215 309.004 96.879 308.892C96.543 308.78 96.171 308.724 95.763 308.724C95.371 308.724 95.007 308.78 94.671 308.892C94.343 309.004 94.047 309.16 93.783 309.36C93.527 309.56 93.311 309.8 93.135 310.08C92.959 310.352 92.831 310.652 92.751 310.98C92.639 311.308 92.487 311.528 92.295 311.64C92.111 311.752 91.839 311.776 91.479 311.712L90.123 311.472Z" fill="#FDFEFE"/>
    <g clip-path="url(#clip0_945_8290)">
        <path d="M8.29443 340.392C7.84132 340.877 7.2273 341.15 6.58713 341.15C5.94696 341.15 5.33294 340.877 4.87983 340.392L4.35794 339.832L4.35279 339.826L3.13906 338.524C3.05037 338.428 3.00039 338.299 3 338.164C3.00013 338.029 3.05022 337.899 3.13933 337.803C3.22843 337.707 3.3493 337.653 3.47554 337.652C3.59968 337.653 3.71861 337.706 3.80687 337.8L4.67554 338.732C4.70764 338.767 4.75126 338.786 4.79682 338.786C4.84238 338.787 4.88613 338.767 4.91846 338.733C4.95078 338.698 4.96904 338.652 4.9692 338.603C4.96936 338.554 4.95141 338.507 4.91932 338.472L4.05236 337.542L4.04893 337.538L3.85665 337.332C3.81255 337.284 3.77769 337.228 3.75411 337.166C3.73053 337.104 3.7187 337.038 3.71931 336.971C3.71901 336.87 3.74662 336.771 3.79862 336.688C3.85062 336.604 3.92467 336.538 4.01135 336.5C4.09804 336.461 4.19343 336.451 4.28541 336.471C4.37739 336.491 4.4618 336.54 4.5279 336.611L5.59056 337.752C5.60657 337.769 5.62555 337.782 5.64642 337.792C5.66729 337.801 5.68964 337.805 5.7122 337.805C5.73476 337.805 5.75708 337.8 5.77789 337.791C5.79869 337.782 5.81759 337.768 5.83348 337.751C5.84937 337.734 5.86196 337.713 5.87052 337.691C5.87908 337.669 5.88344 337.645 5.88336 337.62C5.88328 337.596 5.87876 337.572 5.87005 337.55C5.86135 337.527 5.84863 337.507 5.83262 337.49L4.55365 336.118C4.5096 336.07 4.47464 336.014 4.45078 335.953C4.42692 335.891 4.41462 335.825 4.41459 335.758C4.41413 335.691 4.42619 335.625 4.45007 335.563C4.47396 335.501 4.50917 335.444 4.55365 335.397C4.59772 335.35 4.65004 335.312 4.70762 335.287C4.76521 335.261 4.82694 335.248 4.88927 335.248C4.95161 335.248 5.01333 335.261 5.07092 335.287C5.12851 335.312 5.18083 335.35 5.2249 335.397L6.50387 336.77C6.51976 336.787 6.53865 336.801 6.55946 336.81C6.58027 336.819 6.60259 336.824 6.62515 336.824C6.64771 336.824 6.67006 336.82 6.69093 336.81C6.7118 336.801 6.73078 336.788 6.74679 336.771C6.76279 336.754 6.77551 336.733 6.78422 336.711C6.79292 336.689 6.79745 336.665 6.79752 336.641C6.7976 336.616 6.79324 336.592 6.78468 336.57C6.77612 336.548 6.76354 336.527 6.74764 336.51L4.32876 333.914C4.2625 333.843 4.21743 333.752 4.19924 333.653C4.18106 333.555 4.19059 333.452 4.22662 333.359C4.26265 333.266 4.32356 333.187 4.40164 333.131C4.47972 333.076 4.57146 333.046 4.66524 333.046H4.66695C4.72918 333.046 4.79081 333.059 4.84828 333.085C4.90575 333.11 4.9579 333.148 5.00172 333.195L7.77082 336.167H7.77254L8.29443 336.729C8.74626 337.215 9 337.874 9 338.561C9 339.247 8.74626 339.906 8.29443 340.392ZM8.13134 333.746L7.18679 334.76C7.17084 334.777 7.15191 334.791 7.13107 334.8C7.11023 334.809 7.08789 334.814 7.06533 334.814C7.04277 334.814 7.02043 334.809 6.99959 334.8C6.97874 334.791 6.95981 334.777 6.94387 334.76L6.4261 334.203C6.39394 334.168 6.37589 334.121 6.37592 334.073C6.37595 334.024 6.39406 333.977 6.42627 333.942L6.89013 333.446C6.97214 333.358 7.06967 333.288 7.17705 333.24C7.28443 333.193 7.39952 333.169 7.51564 333.17C7.63176 333.17 7.74659 333.196 7.85346 333.245C7.96034 333.293 8.05712 333.364 8.1382 333.454C8.1728 333.494 8.19144 333.547 8.19015 333.601C8.18887 333.656 8.16777 333.708 8.13134 333.746ZM7.01717 331.611L6.34249 332.333C6.29808 332.381 6.24513 332.42 6.18676 332.446C6.12838 332.472 6.06576 332.485 6.00258 332.484C5.93916 332.485 5.87633 332.471 5.8177 332.445C5.75906 332.419 5.70579 332.381 5.66095 332.333L4.96567 331.587C4.89231 331.509 4.83417 331.417 4.79466 331.314C4.75516 331.212 4.73508 331.103 4.73562 330.992C4.73611 330.855 4.7676 330.72 4.8274 330.598C4.8872 330.477 4.97353 330.373 5.07897 330.295C5.20588 330.202 5.35616 330.153 5.50987 330.154C5.68625 330.154 5.8578 330.215 5.99915 330.329C6.13657 330.212 6.30657 330.149 6.48155 330.15H6.4867C6.61405 330.151 6.73933 330.185 6.85176 330.249C6.9642 330.313 7.06043 330.405 7.13219 330.518C7.23483 330.686 7.27951 330.887 7.25851 331.087C7.2375 331.286 7.15213 331.472 7.01717 331.611Z" fill="#FB847B"/>
    </g>
    <path d="M19.9171 335.914V332.784H18.1705C17.8302 332.784 17.5391 332.821 17.2972 332.895C17.0553 332.969 16.8564 333.075 16.7006 333.215C16.5448 333.35 16.43 333.514 16.3562 333.707C16.2865 333.895 16.2517 334.106 16.2517 334.34C16.2517 334.586 16.2865 334.807 16.3562 335.004C16.43 335.197 16.5428 335.361 16.6945 335.496C16.8503 335.632 17.0491 335.736 17.291 335.81C17.537 335.88 17.8302 335.914 18.1705 335.914H19.9171ZM21.104 340.65H19.9171V336.855H18.7178C18.6071 336.855 18.5026 336.866 18.4042 336.886C18.3099 336.903 18.2176 336.935 18.1274 336.985C18.0372 337.034 17.947 337.101 17.8568 337.187C17.7666 337.269 17.6764 337.376 17.5862 337.507L15.6736 340.226C15.5998 340.357 15.4993 340.461 15.3722 340.539C15.2451 340.613 15.0955 340.65 14.9233 340.65H14.0254L16.307 337.433C16.553 337.073 16.8421 336.816 17.1742 336.665C16.8216 336.599 16.5141 336.497 16.2517 336.357C15.9893 336.218 15.7699 336.05 15.5936 335.853C15.4214 335.652 15.2923 335.424 15.2062 335.17C15.1201 334.916 15.077 334.641 15.077 334.346C15.077 333.969 15.1447 333.627 15.28 333.319C15.4194 333.012 15.6203 332.749 15.8827 332.532C16.1492 332.311 16.4731 332.14 16.8544 332.021C17.2398 331.898 17.6785 331.837 18.1705 331.837H21.104V340.65ZM31.5885 334.42V340.65H30.4938V336.419C30.4938 336.337 30.4979 336.249 30.5061 336.154C30.5143 336.06 30.5246 335.966 30.5369 335.871C30.5 335.953 30.4631 336.029 30.4262 336.099C30.3893 336.169 30.3503 336.232 30.3093 336.29L27.302 340.379C27.2569 340.445 27.1995 340.508 27.1298 340.57C27.0642 340.627 26.9904 340.656 26.9084 340.656H26.2442V334.426H27.345V338.657C27.345 338.735 27.3409 338.821 27.3327 338.916C27.3245 339.006 27.3143 339.098 27.302 339.192C27.3389 339.114 27.3758 339.043 27.4127 338.977C27.4496 338.907 27.4865 338.844 27.5234 338.786L30.5307 334.697C30.5758 334.631 30.6332 334.57 30.7029 334.512C30.7726 334.451 30.8485 334.42 30.9305 334.42H31.5885ZM42.8454 339.82V342.458C42.8454 342.565 42.8147 342.647 42.7532 342.704C42.6958 342.766 42.6199 342.796 42.5256 342.796H41.8491V340.65H33.3191V334.42H34.4199V339.82H36.9599V334.42H38.0607V339.82H40.6007V334.42H41.7015V339.82H42.8454ZM49.0363 334.42L45.5615 342.489C45.5246 342.571 45.4775 342.636 45.4201 342.686C45.3668 342.735 45.2827 342.759 45.1679 342.759H44.3561L45.4939 340.287L42.9232 334.42H43.8703C43.9646 334.42 44.0384 334.445 44.0917 334.494C44.1491 334.539 44.188 334.59 44.2085 334.648L45.8752 338.571C45.9408 338.743 45.9961 338.924 46.0412 339.112C46.0986 338.92 46.1601 338.737 46.2257 338.565L47.8432 334.648C47.8678 334.582 47.9088 334.529 47.9662 334.488C48.0277 334.443 48.0953 334.42 48.1691 334.42H49.0363ZM57.4431 339.85V335.281H55.469C55.428 335.921 55.3706 336.486 55.2968 336.978C55.223 337.47 55.1369 337.903 55.0385 338.276C54.9442 338.645 54.8376 338.959 54.7187 339.217C54.6039 339.475 54.4829 339.686 54.3558 339.85H57.4431ZM59.6448 339.82V342.458C59.6448 342.565 59.6141 342.647 59.5526 342.704C59.4952 342.766 59.4193 342.796 59.325 342.796H58.6547V340.65H53.4149V342.483C53.4149 342.561 53.3903 342.632 53.3411 342.698C53.296 342.763 53.2201 342.796 53.1135 342.796H52.4247V339.85H52.6277C52.7712 339.85 52.9126 339.826 53.052 339.777C53.1955 339.727 53.3329 339.635 53.4641 339.5C53.5953 339.36 53.7183 339.166 53.8331 338.916C53.952 338.666 54.0586 338.34 54.1529 337.938C54.2472 337.536 54.3292 337.048 54.3989 336.474C54.4686 335.896 54.5239 335.211 54.5649 334.42H58.5071V339.82H59.6448ZM63.2718 334.322C63.7269 334.322 64.1369 334.397 64.5018 334.549C64.8667 334.701 65.1783 334.916 65.4366 335.195C65.6949 335.474 65.8917 335.812 66.027 336.21C66.1664 336.603 66.2361 337.044 66.2361 337.532C66.2361 338.024 66.1664 338.467 66.027 338.86C65.8917 339.254 65.6949 339.59 65.4366 339.869C65.1783 340.148 64.8667 340.363 64.5018 340.515C64.1369 340.662 63.7269 340.736 63.2718 340.736C62.8126 340.736 62.3985 340.662 62.0295 340.515C61.6646 340.363 61.353 340.148 61.0947 339.869C60.8364 339.59 60.6375 339.254 60.4981 338.86C60.3628 338.467 60.2952 338.024 60.2952 337.532C60.2952 337.044 60.3628 336.603 60.4981 336.21C60.6375 335.812 60.8364 335.474 61.0947 335.195C61.353 334.916 61.6646 334.701 62.0295 334.549C62.3985 334.397 62.8126 334.322 63.2718 334.322ZM63.2718 339.881C63.8868 339.881 64.346 339.676 64.6494 339.266C64.9528 338.852 65.1045 338.276 65.1045 337.538C65.1045 336.796 64.9528 336.218 64.6494 335.804C64.346 335.39 63.8868 335.183 63.2718 335.183C62.9602 335.183 62.6875 335.236 62.4538 335.342C62.2242 335.449 62.0315 335.603 61.8757 335.804C61.724 336.005 61.6092 336.253 61.5313 336.548C61.4575 336.839 61.4206 337.169 61.4206 337.538C61.4206 338.276 61.5723 338.852 61.8757 339.266C62.1832 339.676 62.6486 339.881 63.2718 339.881ZM72.9056 340.65H71.8109V335.281H69.8429C69.7937 336.072 69.7199 336.757 69.6215 337.335C69.5231 337.909 69.4042 338.399 69.2648 338.805C69.1295 339.207 68.9757 339.535 68.8035 339.789C68.6354 340.039 68.4571 340.234 68.2685 340.373C68.084 340.513 67.8913 340.607 67.6904 340.656C67.4936 340.705 67.2968 340.73 67.1 340.73C66.7515 340.73 66.5772 340.675 66.5772 340.564V339.869H66.897C67.0364 339.869 67.1779 339.844 67.3214 339.795C67.4649 339.746 67.6043 339.652 67.7396 339.512C67.879 339.373 68.0122 339.178 68.1393 338.928C68.2664 338.674 68.3812 338.346 68.4837 337.944C68.5903 337.538 68.6805 337.048 68.7543 336.474C68.8322 335.896 68.8917 335.211 68.9327 334.42H72.9056V340.65ZM78.68 335.256H75.7403V340.65H74.6394V334.42H78.68V335.256ZM82.0461 334.322C82.5012 334.322 82.9112 334.397 83.2761 334.549C83.641 334.701 83.9526 334.916 84.2109 335.195C84.4692 335.474 84.666 335.812 84.8013 336.21C84.9407 336.603 85.0104 337.044 85.0104 337.532C85.0104 338.024 84.9407 338.467 84.8013 338.86C84.666 339.254 84.4692 339.59 84.2109 339.869C83.9526 340.148 83.641 340.363 83.2761 340.515C82.9112 340.662 82.5012 340.736 82.0461 340.736C81.5869 340.736 81.1728 340.662 80.8038 340.515C80.4389 340.363 80.1273 340.148 79.869 339.869C79.6107 339.59 79.4119 339.254 79.2725 338.86C79.1372 338.467 79.0695 338.024 79.0695 337.532C79.0695 337.044 79.1372 336.603 79.2725 336.21C79.4119 335.812 79.6107 335.474 79.869 335.195C80.1273 334.916 80.4389 334.701 80.8038 334.549C81.1728 334.397 81.5869 334.322 82.0461 334.322ZM82.0461 339.881C82.6611 339.881 83.1203 339.676 83.4237 339.266C83.7271 338.852 83.8788 338.276 83.8788 337.538C83.8788 336.796 83.7271 336.218 83.4237 335.804C83.1203 335.39 82.6611 335.183 82.0461 335.183C81.7345 335.183 81.4619 335.236 81.2282 335.342C80.9986 335.449 80.8059 335.603 80.6501 335.804C80.4984 336.005 80.3836 336.253 80.3057 336.548C80.2319 336.839 80.195 337.169 80.195 337.538C80.195 338.276 80.3467 338.852 80.6501 339.266C80.9576 339.676 81.4229 339.881 82.0461 339.881ZM86.3005 336.499H89.3386V337.427H86.3005V336.499ZM99.4547 334.42V340.65H98.36V336.419C98.36 336.337 98.3641 336.249 98.3723 336.154C98.3805 336.06 98.3908 335.966 98.4031 335.871C98.3662 335.953 98.3293 336.029 98.2924 336.099C98.2555 336.169 98.2165 336.232 98.1755 336.29L95.1682 340.379C95.1231 340.445 95.0657 340.508 94.996 340.57C94.9304 340.627 94.8566 340.656 94.7746 340.656H94.1104V334.426H95.2112V338.657C95.2112 338.735 95.2071 338.821 95.1989 338.916C95.1907 339.006 95.1805 339.098 95.1682 339.192C95.2051 339.114 95.242 339.043 95.2789 338.977C95.3158 338.907 95.3527 338.844 95.3896 338.786L98.3969 334.697C98.442 334.631 98.4994 334.57 98.5691 334.512C98.6388 334.451 98.7147 334.42 98.7967 334.42H99.4547ZM106.646 340.65H105.552V335.281H103.584C103.535 336.072 103.461 336.757 103.362 337.335C103.264 337.909 103.145 338.399 103.006 338.805C102.87 339.207 102.717 339.535 102.544 339.789C102.376 340.039 102.198 340.234 102.009 340.373C101.825 340.513 101.632 340.607 101.431 340.656C101.234 340.705 101.038 340.73 100.841 340.73C100.492 340.73 100.318 340.675 100.318 340.564V339.869H100.638C100.777 339.869 100.919 339.844 101.062 339.795C101.206 339.746 101.345 339.652 101.48 339.512C101.62 339.373 101.753 339.178 101.88 338.928C102.007 338.674 102.122 338.346 102.225 337.944C102.331 337.538 102.421 337.048 102.495 336.474C102.573 335.896 102.633 335.211 102.674 334.42H106.646V340.65ZM113.725 334.42V340.65H112.63V336.419C112.63 336.337 112.634 336.249 112.642 336.154C112.65 336.06 112.661 335.966 112.673 335.871C112.636 335.953 112.599 336.029 112.562 336.099C112.525 336.169 112.486 336.232 112.445 336.29L109.438 340.379C109.393 340.445 109.336 340.508 109.266 340.57C109.2 340.627 109.127 340.656 109.045 340.656H108.38V334.426H109.481V338.657C109.481 338.735 109.477 338.821 109.469 338.916C109.461 339.006 109.45 339.098 109.438 339.192C109.475 339.114 109.512 339.043 109.549 338.977C109.586 338.907 109.623 338.844 109.66 338.786L112.667 334.697C112.712 334.631 112.769 334.57 112.839 334.512C112.909 334.451 112.985 334.42 113.067 334.42H113.725ZM122.385 334.727C122.442 334.637 122.518 334.563 122.612 334.506C122.706 334.449 122.807 334.42 122.913 334.42H123.768L122.151 336.794C122.052 336.946 121.95 337.071 121.843 337.169C121.737 337.263 121.606 337.337 121.45 337.39C121.647 337.444 121.813 337.528 121.948 337.643C122.083 337.753 122.204 337.897 122.311 338.073L123.947 340.65H123.184C122.987 340.65 122.836 340.617 122.729 340.552C122.622 340.486 122.53 340.392 122.452 340.269L121.241 338.331C121.048 338.012 120.759 337.852 120.373 337.852H119.703V340.656H118.602V334.42H119.703V337.114H120.294C120.622 337.114 120.878 336.974 121.062 336.695L122.385 334.727ZM126.069 339.149C126.27 339.42 126.49 339.611 126.727 339.721C126.965 339.832 127.232 339.887 127.527 339.887C128.109 339.887 128.556 339.68 128.868 339.266C129.179 338.852 129.335 338.262 129.335 337.495C129.335 337.089 129.298 336.741 129.224 336.449C129.155 336.158 129.052 335.921 128.917 335.736C128.781 335.547 128.615 335.41 128.419 335.324C128.222 335.238 127.998 335.195 127.748 335.195C127.392 335.195 127.078 335.277 126.807 335.441C126.541 335.605 126.295 335.837 126.069 336.136V339.149ZM126.014 335.386C126.276 335.062 126.58 334.801 126.924 334.604C127.269 334.408 127.662 334.309 128.105 334.309C128.466 334.309 128.792 334.379 129.083 334.518C129.374 334.654 129.622 334.857 129.827 335.127C130.032 335.394 130.19 335.726 130.301 336.124C130.411 336.521 130.467 336.978 130.467 337.495C130.467 337.954 130.405 338.383 130.282 338.78C130.159 339.174 129.981 339.516 129.747 339.807C129.517 340.094 129.235 340.322 128.898 340.49C128.566 340.654 128.191 340.736 127.773 340.736C127.392 340.736 127.064 340.672 126.789 340.545C126.518 340.414 126.278 340.234 126.069 340.004V342.759H124.968V334.42H125.627C125.782 334.42 125.879 334.496 125.916 334.648L126.014 335.386ZM135.228 337.846C134.723 337.862 134.293 337.903 133.936 337.969C133.583 338.03 133.294 338.112 133.069 338.215C132.848 338.317 132.686 338.438 132.583 338.577C132.485 338.717 132.435 338.873 132.435 339.045C132.435 339.209 132.462 339.35 132.515 339.469C132.569 339.588 132.64 339.686 132.731 339.764C132.825 339.838 132.934 339.893 133.057 339.93C133.184 339.963 133.319 339.98 133.463 339.98C133.655 339.98 133.832 339.961 133.991 339.924C134.151 339.883 134.301 339.826 134.44 339.752C134.584 339.678 134.719 339.59 134.846 339.488C134.977 339.385 135.105 339.268 135.228 339.137V337.846ZM131.691 335.299C132.036 334.967 132.407 334.719 132.804 334.555C133.202 334.391 133.643 334.309 134.127 334.309C134.475 334.309 134.785 334.367 135.055 334.481C135.326 334.596 135.554 334.756 135.738 334.961C135.923 335.166 136.062 335.414 136.156 335.705C136.251 335.996 136.298 336.316 136.298 336.665V340.65H135.812C135.705 340.65 135.623 340.634 135.566 340.601C135.508 340.564 135.463 340.494 135.431 340.392L135.308 339.801C135.144 339.953 134.984 340.088 134.828 340.207C134.672 340.322 134.508 340.42 134.336 340.502C134.164 340.58 133.979 340.64 133.782 340.681C133.59 340.726 133.374 340.748 133.137 340.748C132.895 340.748 132.667 340.716 132.454 340.65C132.241 340.58 132.054 340.478 131.894 340.342C131.738 340.207 131.613 340.037 131.519 339.832C131.429 339.623 131.384 339.377 131.384 339.094C131.384 338.848 131.451 338.612 131.587 338.387C131.722 338.157 131.941 337.954 132.245 337.778C132.548 337.602 132.944 337.458 133.432 337.347C133.92 337.233 134.518 337.167 135.228 337.151V336.665C135.228 336.181 135.123 335.816 134.914 335.57C134.705 335.32 134.399 335.195 133.998 335.195C133.727 335.195 133.499 335.23 133.315 335.299C133.135 335.365 132.977 335.441 132.841 335.527C132.71 335.609 132.595 335.685 132.497 335.755C132.403 335.82 132.308 335.853 132.214 335.853C132.14 335.853 132.077 335.834 132.023 335.798C131.97 335.757 131.925 335.707 131.888 335.65L131.691 335.299ZM142.987 335.256H140.595V340.65H139.5V335.256H137.108V334.42H142.987V335.256ZM147.813 334.727C147.871 334.637 147.947 334.563 148.041 334.506C148.135 334.449 148.236 334.42 148.342 334.42H149.197L147.58 336.794C147.481 336.946 147.379 337.071 147.272 337.169C147.166 337.263 147.034 337.337 146.879 337.39C147.075 337.444 147.241 337.528 147.377 337.643C147.512 337.753 147.633 337.897 147.74 338.073L149.375 340.65H148.613C148.416 340.65 148.264 340.617 148.158 340.552C148.051 340.486 147.959 340.392 147.881 340.269L146.669 338.331C146.477 338.012 146.188 337.852 145.802 337.852H145.132V340.656H144.031V334.42H145.132V337.114H145.722C146.05 337.114 146.307 336.974 146.491 336.695L147.813 334.727ZM152.783 334.322C153.238 334.322 153.648 334.397 154.013 334.549C154.378 334.701 154.69 334.916 154.948 335.195C155.206 335.474 155.403 335.812 155.538 336.21C155.678 336.603 155.747 337.044 155.747 337.532C155.747 338.024 155.678 338.467 155.538 338.86C155.403 339.254 155.206 339.59 154.948 339.869C154.69 340.148 154.378 340.363 154.013 340.515C153.648 340.662 153.238 340.736 152.783 340.736C152.324 340.736 151.91 340.662 151.541 340.515C151.176 340.363 150.864 340.148 150.606 339.869C150.348 339.59 150.149 339.254 150.009 338.86C149.874 338.467 149.807 338.024 149.807 337.532C149.807 337.044 149.874 336.603 150.009 336.21C150.149 335.812 150.348 335.474 150.606 335.195C150.864 334.916 151.176 334.701 151.541 334.549C151.91 334.397 152.324 334.322 152.783 334.322ZM152.783 339.881C153.398 339.881 153.857 339.676 154.161 339.266C154.464 338.852 154.616 338.276 154.616 337.538C154.616 336.796 154.464 336.218 154.161 335.804C153.857 335.39 153.398 335.183 152.783 335.183C152.472 335.183 152.199 335.236 151.965 335.342C151.736 335.449 151.543 335.603 151.387 335.804C151.235 336.005 151.121 336.253 151.043 336.548C150.969 336.839 150.932 337.169 150.932 337.538C150.932 338.276 151.084 338.852 151.387 339.266C151.695 339.676 152.16 339.881 152.783 339.881ZM161.472 335.527C161.439 335.572 161.406 335.607 161.373 335.632C161.34 335.656 161.295 335.668 161.238 335.668C161.176 335.668 161.109 335.644 161.035 335.595C160.961 335.541 160.869 335.484 160.758 335.422C160.652 335.361 160.518 335.306 160.358 335.256C160.203 335.203 160.01 335.176 159.78 335.176C159.473 335.176 159.202 335.232 158.969 335.342C158.735 335.449 158.538 335.605 158.378 335.81C158.222 336.015 158.103 336.263 158.021 336.554C157.944 336.845 157.905 337.171 157.905 337.532C157.905 337.909 157.948 338.245 158.034 338.54C158.12 338.832 158.241 339.078 158.397 339.278C158.557 339.475 158.747 339.627 158.969 339.734C159.194 339.836 159.446 339.887 159.725 339.887C159.992 339.887 160.211 339.857 160.383 339.795C160.555 339.729 160.697 339.658 160.807 339.58C160.922 339.502 161.017 339.432 161.09 339.371C161.168 339.305 161.244 339.272 161.318 339.272C161.408 339.272 161.478 339.307 161.527 339.377L161.834 339.777C161.699 339.945 161.545 340.088 161.373 340.207C161.201 340.326 161.014 340.426 160.814 340.508C160.617 340.586 160.41 340.644 160.192 340.681C159.975 340.718 159.754 340.736 159.528 340.736C159.139 340.736 158.776 340.664 158.44 340.521C158.108 340.377 157.819 340.17 157.573 339.9C157.327 339.625 157.134 339.289 156.994 338.891C156.855 338.493 156.785 338.04 156.785 337.532C156.785 337.069 156.849 336.64 156.976 336.247C157.107 335.853 157.296 335.515 157.542 335.232C157.792 334.945 158.097 334.721 158.458 334.561C158.823 334.402 159.241 334.322 159.713 334.322C160.151 334.322 160.537 334.393 160.869 334.537C161.205 334.676 161.502 334.875 161.761 335.133L161.472 335.527ZM164.11 339.149C164.311 339.42 164.531 339.611 164.769 339.721C165.006 339.832 165.273 339.887 165.568 339.887C166.15 339.887 166.597 339.68 166.909 339.266C167.22 338.852 167.376 338.262 167.376 337.495C167.376 337.089 167.339 336.741 167.265 336.449C167.196 336.158 167.093 335.921 166.958 335.736C166.823 335.547 166.657 335.41 166.46 335.324C166.263 335.238 166.04 335.195 165.789 335.195C165.433 335.195 165.119 335.277 164.848 335.441C164.582 335.605 164.336 335.837 164.11 336.136V339.149ZM164.055 335.386C164.318 335.062 164.621 334.801 164.965 334.604C165.31 334.408 165.703 334.309 166.146 334.309C166.507 334.309 166.833 334.379 167.124 334.518C167.415 334.654 167.663 334.857 167.868 335.127C168.073 335.394 168.231 335.726 168.342 336.124C168.452 336.521 168.508 336.978 168.508 337.495C168.508 337.954 168.446 338.383 168.323 338.78C168.2 339.174 168.022 339.516 167.788 339.807C167.559 340.094 167.276 340.322 166.939 340.49C166.607 340.654 166.232 340.736 165.814 340.736C165.433 340.736 165.105 340.672 164.83 340.545C164.559 340.414 164.32 340.234 164.11 340.004V342.759H163.01V334.42H163.668C163.823 334.42 163.92 334.496 163.957 334.648L164.055 335.386ZM172.518 334.322C172.973 334.322 173.383 334.397 173.748 334.549C174.113 334.701 174.425 334.916 174.683 335.195C174.941 335.474 175.138 335.812 175.274 336.21C175.413 336.603 175.483 337.044 175.483 337.532C175.483 338.024 175.413 338.467 175.274 338.86C175.138 339.254 174.941 339.59 174.683 339.869C174.425 340.148 174.113 340.363 173.748 340.515C173.383 340.662 172.973 340.736 172.518 340.736C172.059 340.736 171.645 340.662 171.276 340.515C170.911 340.363 170.6 340.148 170.341 339.869C170.083 339.59 169.884 339.254 169.745 338.86C169.609 338.467 169.542 338.024 169.542 337.532C169.542 337.044 169.609 336.603 169.745 336.21C169.884 335.812 170.083 335.474 170.341 335.195C170.6 334.916 170.911 334.701 171.276 334.549C171.645 334.397 172.059 334.322 172.518 334.322ZM172.518 339.881C173.133 339.881 173.593 339.676 173.896 339.266C174.199 338.852 174.351 338.276 174.351 337.538C174.351 336.796 174.199 336.218 173.896 335.804C173.593 335.39 173.133 335.183 172.518 335.183C172.207 335.183 171.934 335.236 171.7 335.342C171.471 335.449 171.278 335.603 171.122 335.804C170.971 336.005 170.856 336.253 170.778 336.548C170.704 336.839 170.667 337.169 170.667 337.538C170.667 338.276 170.819 338.852 171.122 339.266C171.43 339.676 171.895 339.881 172.518 339.881ZM181.465 334.42V340.65H180.37V338.005C179.837 338.145 179.335 338.233 178.864 338.27C178.396 338.303 177.986 338.266 177.634 338.159C177.285 338.053 177.008 337.866 176.803 337.6C176.603 337.329 176.502 336.956 176.502 336.48V334.42H177.603V336.314C177.603 336.613 177.662 336.849 177.781 337.021C177.904 337.194 178.083 337.313 178.316 337.378C178.55 337.444 178.839 337.462 179.184 337.433C179.528 337.405 179.924 337.337 180.37 337.231V334.42H181.465ZM188.392 334.42V340.65H187.291V337.735H184.302V340.65H183.201V334.42H184.302V336.905H187.291V334.42H188.392ZM192.758 334.322C193.213 334.322 193.623 334.397 193.988 334.549C194.353 334.701 194.665 334.916 194.923 335.195C195.181 335.474 195.378 335.812 195.513 336.21C195.653 336.603 195.722 337.044 195.722 337.532C195.722 338.024 195.653 338.467 195.513 338.86C195.378 339.254 195.181 339.59 194.923 339.869C194.665 340.148 194.353 340.363 193.988 340.515C193.623 340.662 193.213 340.736 192.758 340.736C192.299 340.736 191.885 340.662 191.516 340.515C191.151 340.363 190.839 340.148 190.581 339.869C190.323 339.59 190.124 339.254 189.984 338.86C189.849 338.467 189.782 338.024 189.782 337.532C189.782 337.044 189.849 336.603 189.984 336.21C190.124 335.812 190.323 335.474 190.581 335.195C190.839 334.916 191.151 334.701 191.516 334.549C191.885 334.397 192.299 334.322 192.758 334.322ZM192.758 339.881C193.373 339.881 193.832 339.676 194.136 339.266C194.439 338.852 194.591 338.276 194.591 337.538C194.591 336.796 194.439 336.218 194.136 335.804C193.832 335.39 193.373 335.183 192.758 335.183C192.447 335.183 192.174 335.236 191.94 335.342C191.711 335.449 191.518 335.603 191.362 335.804C191.21 336.005 191.096 336.253 191.018 336.548C190.944 336.839 190.907 337.169 190.907 337.538C190.907 338.276 191.059 338.852 191.362 339.266C191.67 339.676 192.135 339.881 192.758 339.881Z" fill="#FB847B"/>
    <g opacity="0.7">
        <g clip-path="url(#clip1_945_8290)">
            <path d="M7.09371 354.437C8.21924 352.89 9.80952 350.432 9.80952 348.892C9.80952 347.919 9.40816 346.987 8.69374 346.299C7.97932 345.611 7.01035 345.225 6 345.225C4.98965 345.225 4.02068 345.611 3.30626 346.299C2.59184 346.987 2.19048 347.919 2.19048 348.892C2.19048 350.432 3.78076 352.89 4.90629 354.437C5.02927 354.606 5.19292 354.745 5.38333 354.84C5.57374 354.936 5.78528 354.986 6 354.986C6.21472 354.986 6.42626 354.936 6.61667 354.84C6.80708 354.745 6.97073 354.606 7.09371 354.437ZM4.09524 350.358V348.525C4.09524 348.428 4.13537 348.335 4.20682 348.266C4.27826 348.197 4.37516 348.158 4.47619 348.158H5.04762V347.975C5.04762 347.829 5.10782 347.689 5.21499 347.586C5.32215 347.483 5.4675 347.425 5.61905 347.425H6.38095C6.5325 347.425 6.67785 347.483 6.78501 347.586C6.89218 347.689 6.95238 347.829 6.95238 347.975V348.158H7.52381C7.62484 348.158 7.72174 348.197 7.79318 348.266C7.86463 348.335 7.90476 348.428 7.90476 348.525V350.358C7.90476 350.456 7.86463 350.549 7.79318 350.618C7.72174 350.686 7.62484 350.725 7.52381 350.725H4.47619C4.37516 350.725 4.27826 350.686 4.20682 350.618C4.13537 350.549 4.09524 350.456 4.09524 350.358ZM6.57143 347.975V348.158H5.42857V347.975C5.42857 347.926 5.44864 347.88 5.48436 347.845C5.52008 347.811 5.56853 347.792 5.61905 347.792H6.38095C6.43147 347.792 6.47992 347.811 6.51564 347.845C6.55136 347.88 6.57143 347.926 6.57143 347.975ZM10 354.942C10 356.133 6.93848 356.225 6 356.225C5.06152 356.225 2 356.133 2 354.942C2 354.452 2.51429 354.094 3.52857 353.876C3.62721 353.855 3.73053 353.873 3.81582 353.925C3.9011 353.977 3.96136 354.06 3.98333 354.154C4.00531 354.249 3.9872 354.349 3.93299 354.431C3.87879 354.513 3.79292 354.571 3.69429 354.592C3.05657 354.729 2.84229 354.883 2.78 354.944C2.95048 355.116 3.8901 355.492 6 355.492C8.1099 355.492 9.04952 355.116 9.22038 354.944C9.15771 354.883 8.94324 354.729 8.3061 354.592C8.25539 354.584 8.20701 354.565 8.16389 354.538C8.12077 354.511 8.0838 354.476 8.05521 354.435C8.02662 354.393 8.00701 354.347 7.99756 354.298C7.98811 354.25 7.98902 354.2 8.00023 354.151C8.01144 354.103 8.03272 354.057 8.06278 354.017C8.09285 353.977 8.13107 353.943 8.17515 353.917C8.21922 353.892 8.26824 353.875 8.31922 353.868C8.37021 353.861 8.42212 353.864 8.47181 353.877C9.48571 354.094 10 354.452 10 354.942Z" fill="#FDFEFE"/>
        </g>
        <path d="M20.4686 355.725H19.2755V346.912H20.4686V355.725ZM28.6822 347.915H25.8286V355.725H24.6416V347.915H21.7819V346.912H28.6822V347.915ZM32.5063 355.725V349.495H33.1644C33.3202 349.495 33.4165 349.571 33.4534 349.723L33.5334 350.362C33.763 350.079 34.0213 349.848 34.3083 349.667C34.5953 349.487 34.9274 349.397 35.3046 349.397C35.7228 349.397 36.061 349.514 36.3193 349.747C36.5817 349.981 36.7703 350.297 36.8851 350.694C36.9753 350.469 37.0901 350.274 37.2295 350.11C37.373 349.946 37.5329 349.811 37.7092 349.704C37.8855 349.598 38.0721 349.52 38.2689 349.471C38.4698 349.421 38.6727 349.397 38.8777 349.397C39.2057 349.397 39.4968 349.45 39.751 349.557C40.0093 349.659 40.2266 349.811 40.4029 350.012C40.5833 350.213 40.7207 350.461 40.815 350.756C40.9093 351.047 40.9564 351.381 40.9564 351.758V355.725H39.8556V351.758C39.8556 351.27 39.749 350.901 39.5358 350.651C39.3226 350.397 39.0151 350.27 38.6133 350.27C38.4329 350.27 38.2607 350.303 38.0967 350.368C37.9368 350.43 37.7953 350.522 37.6723 350.645C37.5493 350.768 37.4509 350.924 37.3771 351.113C37.3074 351.297 37.2726 351.512 37.2726 351.758V355.725H36.1717V351.758C36.1717 351.258 36.0713 350.885 35.8704 350.639C35.6695 350.393 35.3763 350.27 34.9909 350.27C34.7203 350.27 34.4702 350.344 34.2406 350.491C34.011 350.635 33.7999 350.832 33.6072 351.082V355.725H32.5063ZM45.9966 352.921C45.4923 352.937 45.0618 352.978 44.7051 353.044C44.3525 353.105 44.0634 353.187 43.8379 353.29C43.6165 353.392 43.4546 353.513 43.3521 353.653C43.2537 353.792 43.2045 353.948 43.2045 354.12C43.2045 354.284 43.2311 354.425 43.2844 354.544C43.3377 354.663 43.4095 354.762 43.4997 354.839C43.594 354.913 43.7026 354.969 43.8256 355.006C43.9527 355.038 44.088 355.055 44.2315 355.055C44.4242 355.055 44.6005 355.036 44.7604 354.999C44.9203 354.958 45.07 354.901 45.2094 354.827C45.3529 354.753 45.4882 354.665 45.6153 354.563C45.7465 354.46 45.8736 354.343 45.9966 354.212V352.921ZM42.4603 350.375C42.8047 350.042 43.1758 349.794 43.5735 349.63C43.9712 349.466 44.4119 349.384 44.8957 349.384C45.2442 349.384 45.5538 349.442 45.8244 349.557C46.095 349.671 46.3225 349.831 46.507 350.036C46.6915 350.241 46.8309 350.489 46.9252 350.78C47.0195 351.072 47.0667 351.391 47.0667 351.74V355.725H46.5808C46.4742 355.725 46.3922 355.709 46.3348 355.676C46.2774 355.639 46.2323 355.569 46.1995 355.467L46.0765 354.876C45.9125 355.028 45.7526 355.163 45.5968 355.282C45.441 355.397 45.277 355.495 45.1048 355.577C44.9326 355.655 44.7481 355.715 44.5513 355.756C44.3586 355.801 44.1434 355.823 43.9056 355.823C43.6637 355.823 43.4361 355.791 43.2229 355.725C43.0097 355.655 42.8232 355.553 42.6633 355.418C42.5075 355.282 42.3824 355.112 42.2881 354.907C42.1979 354.698 42.1528 354.452 42.1528 354.169C42.1528 353.923 42.2205 353.687 42.3558 353.462C42.4911 353.232 42.7104 353.029 43.0138 352.853C43.3172 352.677 43.7129 352.533 44.2008 352.423C44.6887 352.308 45.2873 352.242 45.9966 352.226V351.74C45.9966 351.256 45.892 350.891 45.6829 350.645C45.4738 350.395 45.1684 350.27 44.7666 350.27C44.496 350.27 44.2684 350.305 44.0839 350.375C43.9035 350.44 43.7457 350.516 43.6104 350.602C43.4792 350.684 43.3644 350.76 43.266 350.83C43.1717 350.895 43.0774 350.928 42.9831 350.928C42.9093 350.928 42.8457 350.91 42.7924 350.873C42.7391 350.832 42.694 350.783 42.6571 350.725L42.4603 350.375ZM49.7674 350.399C49.9027 350.247 50.0462 350.11 50.1979 349.987C50.3496 349.864 50.5095 349.76 50.6776 349.673C50.8498 349.583 51.0302 349.516 51.2188 349.471C51.4115 349.421 51.6185 349.397 51.8399 349.397C52.1802 349.397 52.4795 349.454 52.7378 349.569C53.0002 349.68 53.2175 349.84 53.3897 350.049C53.566 350.254 53.6993 350.502 53.7895 350.793C53.8797 351.084 53.9248 351.406 53.9248 351.758V355.725H52.8239V351.758C52.8239 351.287 52.7153 350.922 52.498 350.664C52.2848 350.401 51.9588 350.27 51.5201 350.27C51.1962 350.27 50.8928 350.348 50.6099 350.504C50.3311 350.66 50.0728 350.871 49.835 351.137V355.725H48.7342V349.495H49.3922C49.548 349.495 49.6444 349.571 49.6813 349.723L49.7674 350.399ZM58.9692 352.921C58.4649 352.937 58.0344 352.978 57.6777 353.044C57.3251 353.105 57.0361 353.187 56.8106 353.29C56.5892 353.392 56.4272 353.513 56.3247 353.653C56.2263 353.792 56.1771 353.948 56.1771 354.12C56.1771 354.284 56.2038 354.425 56.2571 354.544C56.3104 354.663 56.3821 354.762 56.4723 354.839C56.5666 354.913 56.6753 354.969 56.7983 355.006C56.9254 355.038 57.0607 355.055 57.2042 355.055C57.3969 355.055 57.5732 355.036 57.7331 354.999C57.893 354.958 58.0426 354.901 58.182 354.827C58.3255 354.753 58.4608 354.665 58.5879 354.563C58.7191 354.46 58.8462 354.343 58.9692 354.212V352.921ZM55.433 350.375C55.7774 350.042 56.1484 349.794 56.5461 349.63C56.9438 349.466 57.3846 349.384 57.8684 349.384C58.2169 349.384 58.5264 349.442 58.797 349.557C59.0676 349.671 59.2952 349.831 59.4797 350.036C59.6642 350.241 59.8036 350.489 59.8979 350.78C59.9922 351.072 60.0393 351.391 60.0393 351.74V355.725H59.5535C59.4469 355.725 59.3649 355.709 59.3075 355.676C59.2501 355.639 59.205 355.569 59.1722 355.467L59.0492 354.876C58.8852 355.028 58.7253 355.163 58.5695 355.282C58.4137 355.397 58.2497 355.495 58.0775 355.577C57.9053 355.655 57.7208 355.715 57.524 355.756C57.3313 355.801 57.116 355.823 56.8782 355.823C56.6363 355.823 56.4088 355.791 56.1956 355.725C55.9824 355.655 55.7958 355.553 55.6359 355.418C55.4801 355.282 55.3551 355.112 55.2608 354.907C55.1706 354.698 55.1255 354.452 55.1255 354.169C55.1255 353.923 55.1931 353.687 55.3284 353.462C55.4637 353.232 55.6831 353.029 55.9865 352.853C56.2899 352.677 56.6855 352.533 57.1734 352.423C57.6613 352.308 58.2599 352.242 58.9692 352.226V351.74C58.9692 351.256 58.8647 350.891 58.6556 350.645C58.4465 350.395 58.141 350.27 57.7392 350.27C57.4686 350.27 57.2411 350.305 57.0566 350.375C56.8762 350.44 56.7183 350.516 56.583 350.602C56.4518 350.684 56.337 350.76 56.2386 350.83C56.1443 350.895 56.05 350.928 55.9557 350.928C55.8819 350.928 55.8184 350.91 55.7651 350.873C55.7118 350.832 55.6667 350.783 55.6298 350.725L55.433 350.375ZM63.8778 352.681C64.0992 352.681 64.2939 352.65 64.462 352.589C64.6301 352.527 64.7716 352.441 64.8864 352.33C65.0012 352.22 65.0873 352.088 65.1447 351.937C65.2021 351.781 65.2308 351.611 65.2308 351.426C65.2308 351.045 65.1139 350.742 64.8802 350.516C64.6506 350.291 64.3165 350.178 63.8778 350.178C63.435 350.178 63.0967 350.291 62.863 350.516C62.6334 350.742 62.5186 351.045 62.5186 351.426C62.5186 351.611 62.5473 351.781 62.6047 351.937C62.6662 352.088 62.7544 352.22 62.8692 352.33C62.984 352.441 63.1254 352.527 63.2935 352.589C63.4616 352.65 63.6564 352.681 63.8778 352.681ZM65.8519 356.063C65.8519 355.912 65.8089 355.789 65.7228 355.694C65.6367 355.6 65.5198 355.526 65.3722 355.473C65.2287 355.42 65.0606 355.383 64.8679 355.362C64.6752 355.338 64.4702 355.319 64.2529 355.307C64.0397 355.295 63.8224 355.282 63.601 355.27C63.3796 355.258 63.1664 355.237 62.9614 355.208C62.7318 355.315 62.5432 355.45 62.3956 355.614C62.2521 355.774 62.1804 355.963 62.1804 356.18C62.1804 356.32 62.2152 356.449 62.2849 356.568C62.3587 356.691 62.4694 356.795 62.617 356.881C62.7646 356.971 62.9491 357.041 63.1705 357.09C63.396 357.144 63.6605 357.17 63.9639 357.17C64.2591 357.17 64.5235 357.144 64.7572 357.09C64.9909 357.037 65.1877 356.961 65.3476 356.863C65.5116 356.764 65.6367 356.648 65.7228 356.512C65.8089 356.377 65.8519 356.227 65.8519 356.063ZM66.9651 349.741V350.147C66.9651 350.282 66.879 350.368 66.7068 350.405L65.9995 350.498C66.1389 350.768 66.2086 351.067 66.2086 351.395C66.2086 351.699 66.1492 351.976 66.0303 352.226C65.9155 352.472 65.7556 352.683 65.5506 352.859C65.3456 353.035 65.0996 353.171 64.8126 353.265C64.5256 353.359 64.214 353.407 63.8778 353.407C63.5867 353.407 63.312 353.372 63.0537 353.302C62.9225 353.384 62.822 353.472 62.7523 353.566C62.6826 353.657 62.6478 353.749 62.6478 353.843C62.6478 353.991 62.7072 354.104 62.8261 354.181C62.9491 354.255 63.109 354.309 63.3058 354.341C63.5026 354.374 63.7261 354.395 63.9762 354.403C64.2304 354.411 64.4887 354.425 64.7511 354.446C65.0176 354.462 65.2759 354.493 65.526 354.538C65.7802 354.583 66.0057 354.657 66.2025 354.76C66.3993 354.862 66.5571 355.003 66.676 355.184C66.799 355.364 66.8605 355.598 66.8605 355.885C66.8605 356.151 66.7929 356.41 66.6576 356.66C66.5264 356.91 66.3357 357.131 66.0856 357.324C65.8355 357.521 65.528 357.677 65.1631 357.791C64.8023 357.91 64.3944 357.97 63.9393 357.97C63.4842 357.97 63.0865 357.925 62.7462 357.835C62.4059 357.744 62.123 357.623 61.8975 357.472C61.672 357.32 61.5018 357.144 61.387 356.943C61.2763 356.746 61.221 356.539 61.221 356.322C61.221 356.014 61.3173 355.754 61.51 355.541C61.7027 355.327 61.9672 355.157 62.3034 355.03C62.1189 354.948 61.9713 354.839 61.8606 354.704C61.754 354.565 61.7007 354.378 61.7007 354.145C61.7007 354.054 61.7171 353.962 61.7499 353.868C61.7827 353.769 61.8319 353.673 61.8975 353.579C61.9672 353.48 62.0512 353.388 62.1496 353.302C62.248 353.216 62.3628 353.14 62.494 353.074C62.1865 352.902 61.9467 352.675 61.7745 352.392C61.6023 352.105 61.5162 351.773 61.5162 351.395C61.5162 351.092 61.5736 350.817 61.6884 350.571C61.8073 350.321 61.9713 350.11 62.1804 349.938C62.3895 349.762 62.6375 349.626 62.9245 349.532C63.2156 349.438 63.5334 349.391 63.8778 349.391C64.1484 349.391 64.4005 349.421 64.6342 349.483C64.8679 349.54 65.0811 349.626 65.2738 349.741H66.9651ZM72.1707 351.931C72.1707 351.676 72.1338 351.445 72.06 351.236C71.9903 351.022 71.8857 350.84 71.7463 350.688C71.611 350.532 71.445 350.414 71.2482 350.332C71.0514 350.245 70.8279 350.202 70.5778 350.202C70.053 350.202 69.6369 350.356 69.3294 350.664C69.026 350.967 68.8374 351.389 68.7636 351.931H72.1707ZM73.0563 354.852C72.921 355.016 72.759 355.159 72.5704 355.282C72.3818 355.401 72.1789 355.5 71.9616 355.577C71.7484 355.655 71.527 355.713 71.2974 355.75C71.0678 355.791 70.8402 355.811 70.6147 355.811C70.1842 355.811 69.7865 355.739 69.4216 355.596C69.0608 355.448 68.7472 355.235 68.4807 354.956C68.2183 354.673 68.0133 354.325 67.8657 353.911C67.7181 353.497 67.6443 353.021 67.6443 352.484C67.6443 352.049 67.7099 351.644 67.8411 351.266C67.9764 350.889 68.1691 350.563 68.4192 350.288C68.6693 350.01 68.9747 349.792 69.3355 349.637C69.6963 349.477 70.1022 349.397 70.5532 349.397C70.9263 349.397 71.2707 349.46 71.5864 349.587C71.9062 349.71 72.1809 349.891 72.4105 350.129C72.6442 350.362 72.8267 350.653 72.9579 351.002C73.0891 351.346 73.1547 351.74 73.1547 352.183C73.1547 352.355 73.1362 352.47 73.0993 352.527C73.0624 352.584 72.9927 352.613 72.8902 352.613H68.7267C68.739 353.007 68.7923 353.349 68.8866 353.64C68.985 353.931 69.1203 354.175 69.2925 354.372C69.4647 354.565 69.6697 354.71 69.9075 354.809C70.1453 354.903 70.4118 354.95 70.707 354.95C70.9817 354.95 71.2174 354.919 71.4142 354.858C71.6151 354.792 71.7873 354.723 71.9308 354.649C72.0743 354.575 72.1932 354.507 72.2875 354.446C72.3859 354.38 72.47 354.347 72.5397 354.347C72.6299 354.347 72.6996 354.382 72.7488 354.452L73.0563 354.852ZM75.5387 350.744C75.7355 350.317 75.9774 349.985 76.2644 349.747C76.5514 349.505 76.9019 349.384 77.316 349.384C77.4472 349.384 77.5723 349.399 77.6912 349.427C77.8142 349.456 77.9228 349.501 78.0171 349.563L77.9372 350.381C77.9126 350.483 77.8511 350.534 77.7527 350.534C77.6953 350.534 77.6112 350.522 77.5005 350.498C77.3898 350.473 77.2648 350.461 77.1254 350.461C76.9286 350.461 76.7523 350.489 76.5965 350.547C76.4448 350.604 76.3074 350.69 76.1844 350.805C76.0655 350.916 75.9569 351.055 75.8585 351.223C75.7642 351.387 75.6781 351.576 75.6002 351.789V355.725H74.4993V349.495H75.1266C75.2455 349.495 75.3275 349.518 75.3726 349.563C75.4177 349.608 75.4485 349.686 75.4649 349.796L75.5387 350.744Z" fill="#F5F6FA"/>
    </g>
    <g opacity="0.7">
        <path fill-rule="evenodd" clip-rule="evenodd" d="M6 361.3C4.93928 361.3 3.92215 361.73 3.1721 362.494C2.42206 363.258 2.00048 364.293 2 365.374C2.07497 366.203 2.36016 366.999 2.82764 367.682C3.63915 368.93 4.57476 370.09 5.61964 371.142C5.72142 371.243 5.8579 371.3 6 371.3C6.1421 371.3 6.27858 371.243 6.38036 371.142C7.42524 370.09 8.36085 368.93 9.17236 367.682C9.63984 366.999 9.92503 366.203 10 365.374C9.99952 364.293 9.57794 363.258 8.8279 362.494C8.07785 361.73 7.06072 361.3 6 361.3ZM6 363.522C5.67636 363.522 5.35998 363.62 5.09089 363.803C4.82179 363.986 4.61205 364.246 4.4882 364.551C4.36434 364.855 4.33194 365.191 4.39508 365.514C4.45822 365.837 4.61407 366.134 4.84292 366.367C5.07177 366.6 5.36334 366.759 5.68076 366.823C5.99818 366.888 6.3272 366.855 6.62621 366.728C6.92522 366.602 7.18078 366.389 7.36059 366.115C7.54039 365.841 7.63636 365.518 7.63636 365.189C7.63617 364.747 7.46371 364.323 7.15687 364.01C6.85004 363.698 6.43393 363.522 6 363.522Z" fill="#FDFEFE"/>
        <path d="M24.2201 369.76C24.339 369.76 24.4333 369.795 24.503 369.865C24.5727 369.935 24.6075 370.025 24.6075 370.136V370.8H18.7281V370.425C18.7281 370.347 18.7445 370.267 18.7773 370.185C18.8101 370.103 18.8614 370.027 18.9311 369.957L21.7539 367.122C21.9876 366.884 22.2008 366.657 22.3935 366.439C22.5862 366.218 22.7502 365.997 22.8855 365.775C23.0208 365.554 23.1254 365.33 23.1992 365.105C23.273 364.875 23.3099 364.631 23.3099 364.373C23.3099 364.115 23.2689 363.889 23.1869 363.697C23.1049 363.5 22.9921 363.338 22.8486 363.211C22.7092 363.084 22.5432 362.989 22.3505 362.928C22.1578 362.862 21.9507 362.829 21.7293 362.829C21.5038 362.829 21.2968 362.862 21.1082 362.928C20.9196 362.993 20.7515 363.086 20.6039 363.205C20.4604 363.319 20.3394 363.457 20.241 363.617C20.1426 363.777 20.0729 363.953 20.0319 364.146C19.9827 364.289 19.9151 364.385 19.829 364.435C19.747 364.48 19.6301 364.492 19.4784 364.471L18.9065 364.373C18.9639 363.971 19.0746 363.617 19.2386 363.309C19.4067 362.998 19.6158 362.737 19.8659 362.528C20.1201 362.319 20.4091 362.161 20.733 362.055C21.0569 361.944 21.4075 361.888 21.7847 361.888C22.1578 361.888 22.5063 361.944 22.8302 362.055C23.1541 362.165 23.4349 362.327 23.6727 362.54C23.9105 362.749 24.0971 363.006 24.2324 363.309C24.3677 363.613 24.4353 363.957 24.4353 364.342C24.4353 364.67 24.3861 364.976 24.2877 365.259C24.1893 365.537 24.0561 365.804 23.888 366.058C23.7199 366.312 23.5251 366.56 23.3037 366.802C23.0864 367.044 22.8548 367.288 22.6088 367.534L20.2841 369.908C20.4481 369.863 20.6141 369.828 20.7822 369.804C20.9503 369.775 21.1123 369.76 21.2681 369.76H24.2201ZM33.0815 364.877C33.1389 364.787 33.2147 364.713 33.309 364.656C33.4033 364.599 33.5038 364.57 33.6104 364.57H34.4652L32.8478 366.944C32.7494 367.095 32.6469 367.221 32.5403 367.319C32.4337 367.413 32.3025 367.487 32.1467 367.54C32.3435 367.594 32.5095 367.678 32.6448 367.792C32.7801 367.903 32.9011 368.047 33.0077 368.223L34.6436 370.8H33.881C33.6842 370.8 33.5325 370.767 33.4259 370.701C33.3193 370.636 33.227 370.542 33.1491 370.419L31.9376 368.481C31.7449 368.161 31.4558 368.002 31.0704 368.002H30.4001V370.806H29.2992V364.57H30.4001V367.264H30.9905C31.3185 367.264 31.5747 367.124 31.7592 366.845L33.0815 364.877ZM42.6088 364.551V370.8H41.6186V366.661C41.6186 366.546 41.6248 366.419 41.6371 366.28C41.6535 366.136 41.674 366.003 41.6986 365.88L39.5338 369.674C39.501 369.736 39.4579 369.785 39.4046 369.822C39.3513 369.859 39.2898 369.877 39.2201 369.877H39.0971C39.0274 369.877 38.9639 369.859 38.9065 369.822C38.8532 369.785 38.8101 369.736 38.7773 369.674L36.5756 365.868C36.5961 365.991 36.6146 366.126 36.631 366.273C36.6474 366.417 36.6556 366.546 36.6556 366.661V370.8H35.6654V364.551H36.5449C36.6228 364.551 36.6986 364.57 36.7724 364.607C36.8462 364.64 36.9098 364.703 36.9631 364.797L38.9065 368.045C39.0008 368.233 39.0848 368.432 39.1586 368.641C39.2283 368.424 39.3103 368.225 39.4046 368.045L41.3111 364.797C41.3644 364.699 41.428 364.633 41.5018 364.601C41.5756 364.568 41.6514 364.551 41.7293 364.551H42.6088ZM50.111 364.471C50.5661 364.471 50.9761 364.547 51.341 364.699C51.7059 364.851 52.0175 365.066 52.2758 365.345C52.5341 365.624 52.7309 365.962 52.8662 366.36C53.0056 366.753 53.0753 367.194 53.0753 367.682C53.0753 368.174 53.0056 368.617 52.8662 369.01C52.7309 369.404 52.5341 369.74 52.2758 370.019C52.0175 370.298 51.7059 370.513 51.341 370.665C50.9761 370.812 50.5661 370.886 50.111 370.886C49.6518 370.886 49.2377 370.812 48.8687 370.665C48.5038 370.513 48.1922 370.298 47.9339 370.019C47.6756 369.74 47.4767 369.404 47.3373 369.01C47.202 368.617 47.1344 368.174 47.1344 367.682C47.1344 367.194 47.202 366.753 47.3373 366.36C47.4767 365.962 47.6756 365.624 47.9339 365.345C48.1922 365.066 48.5038 364.851 48.8687 364.699C49.2377 364.547 49.6518 364.471 50.111 364.471ZM50.111 370.031C50.726 370.031 51.1852 369.826 51.4886 369.416C51.792 369.002 51.9437 368.426 51.9437 367.688C51.9437 366.946 51.792 366.368 51.4886 365.954C51.1852 365.54 50.726 365.332 50.111 365.332C49.7994 365.332 49.5267 365.386 49.293 365.492C49.0634 365.599 48.8707 365.753 48.7149 365.954C48.5632 366.155 48.4484 366.403 48.3705 366.698C48.2967 366.989 48.2598 367.319 48.2598 367.688C48.2598 368.426 48.4115 369.002 48.7149 369.416C49.0224 369.826 49.4878 370.031 50.111 370.031ZM59.3898 365.406H56.9975V370.8H55.9028V365.406H53.5104V364.57H59.3898V365.406ZM65.973 370.031C66.383 370.031 66.7069 369.937 66.9447 369.748C67.1825 369.555 67.3014 369.293 67.3014 368.961C67.3014 368.813 67.2788 368.68 67.2337 368.561C67.1886 368.438 67.1148 368.332 67.0123 368.241C66.9098 368.151 66.7725 368.082 66.6003 368.032C66.4322 367.983 66.2251 367.959 65.9791 367.959H64.6323V370.031H65.973ZM64.6323 365.308V367.264H65.8315C66.0119 367.264 66.178 367.239 66.3297 367.19C66.4855 367.136 66.6187 367.065 66.7294 366.975C66.8401 366.88 66.9262 366.77 66.9877 366.642C67.0492 366.511 67.08 366.368 67.08 366.212C67.08 366.097 67.0595 365.986 67.0185 365.88C66.9775 365.769 66.9078 365.673 66.8094 365.591C66.711 365.505 66.5818 365.437 66.4219 365.388C66.262 365.335 66.0652 365.308 65.8315 365.308H64.6323ZM65.8623 364.57C66.2477 364.57 66.5777 364.609 66.8524 364.687C67.1271 364.765 67.3526 364.871 67.5289 365.007C67.7052 365.138 67.8344 365.294 67.9164 365.474C67.9984 365.654 68.0394 365.847 68.0394 366.052C68.0394 366.187 68.0209 366.329 67.984 366.476C67.9471 366.624 67.8815 366.765 67.7872 366.901C67.697 367.036 67.572 367.159 67.4121 367.27C67.2563 367.376 67.0595 367.46 66.8217 367.522C67.2973 367.604 67.6642 367.77 67.9225 368.02C68.1808 368.266 68.31 368.592 68.31 368.998C68.31 369.301 68.2485 369.566 68.1255 369.791C68.0066 370.013 67.8405 370.199 67.6273 370.351C67.4182 370.503 67.1722 370.615 66.8893 370.689C66.6064 370.763 66.303 370.8 65.9791 370.8H63.5806V364.57H65.8623ZM73.059 367.995C72.5547 368.012 72.1242 368.053 71.7675 368.118C71.4149 368.18 71.1258 368.262 70.9003 368.364C70.6789 368.467 70.517 368.588 70.4145 368.727C70.3161 368.867 70.2669 369.022 70.2669 369.195C70.2669 369.359 70.2935 369.5 70.3468 369.619C70.4001 369.738 70.4719 369.836 70.5621 369.914C70.6564 369.988 70.765 370.043 70.888 370.08C71.0151 370.113 71.1504 370.129 71.2939 370.129C71.4866 370.129 71.6629 370.111 71.8228 370.074C71.9827 370.033 72.1324 369.976 72.2718 369.902C72.4153 369.828 72.5506 369.74 72.6777 369.637C72.8089 369.535 72.936 369.418 73.059 369.287V367.995ZM69.5227 365.449C69.8671 365.117 70.2382 364.869 70.6359 364.705C71.0336 364.541 71.4743 364.459 71.9581 364.459C72.3066 364.459 72.6162 364.517 72.8868 364.631C73.1574 364.746 73.3849 364.906 73.5694 365.111C73.7539 365.316 73.8933 365.564 73.9876 365.855C74.0819 366.146 74.1291 366.466 74.1291 366.815V370.8H73.6432C73.5366 370.8 73.4546 370.783 73.3972 370.751C73.3398 370.714 73.2947 370.644 73.2619 370.542L73.1389 369.951C72.9749 370.103 72.815 370.238 72.6592 370.357C72.5034 370.472 72.3394 370.57 72.1672 370.652C71.995 370.73 71.8105 370.79 71.6137 370.831C71.421 370.876 71.2058 370.898 70.968 370.898C70.7261 370.898 70.4985 370.865 70.2853 370.8C70.0721 370.73 69.8856 370.628 69.7257 370.492C69.5699 370.357 69.4448 370.187 69.3505 369.982C69.2603 369.773 69.2152 369.527 69.2152 369.244C69.2152 368.998 69.2829 368.762 69.4182 368.537C69.5535 368.307 69.7728 368.104 70.0762 367.928C70.3796 367.751 70.7753 367.608 71.2632 367.497C71.7511 367.382 72.3497 367.317 73.059 367.3V366.815C73.059 366.331 72.9544 365.966 72.7453 365.72C72.5362 365.47 72.2308 365.345 71.829 365.345C71.5584 365.345 71.3308 365.38 71.1463 365.449C70.9659 365.515 70.8081 365.591 70.6728 365.677C70.5416 365.759 70.4268 365.835 70.3284 365.904C70.2341 365.97 70.1398 366.003 70.0455 366.003C69.9717 366.003 69.9081 365.984 69.8548 365.947C69.8015 365.906 69.7564 365.857 69.7195 365.8L69.5227 365.449ZM80.1323 365.677C80.0995 365.722 80.0667 365.757 80.0339 365.781C80.0011 365.806 79.956 365.818 79.8986 365.818C79.8371 365.818 79.7695 365.794 79.6957 365.745C79.6219 365.691 79.5296 365.634 79.4189 365.572C79.3123 365.511 79.1791 365.455 79.0192 365.406C78.8634 365.353 78.6707 365.326 78.4411 365.326C78.1336 365.326 77.863 365.382 77.6293 365.492C77.3956 365.599 77.1988 365.755 77.0389 365.96C76.8831 366.165 76.7642 366.413 76.6822 366.704C76.6043 366.995 76.5653 367.321 76.5653 367.682C76.5653 368.059 76.6084 368.395 76.6945 368.69C76.7806 368.981 76.9015 369.227 77.0573 369.428C77.2172 369.625 77.4079 369.777 77.6293 369.883C77.8548 369.986 78.1069 370.037 78.3857 370.037C78.6522 370.037 78.8716 370.006 79.0438 369.945C79.216 369.879 79.3574 369.808 79.4681 369.73C79.5829 369.652 79.6772 369.582 79.751 369.521C79.8289 369.455 79.9048 369.422 79.9786 369.422C80.0688 369.422 80.1385 369.457 80.1877 369.527L80.4952 369.927C80.3599 370.095 80.2061 370.238 80.0339 370.357C79.8617 370.476 79.6752 370.576 79.4743 370.658C79.2775 370.736 79.0704 370.794 78.8531 370.831C78.6358 370.867 78.4144 370.886 78.1889 370.886C77.7994 370.886 77.4366 370.814 77.1004 370.671C76.7683 370.527 76.4792 370.32 76.2332 370.05C75.9872 369.775 75.7945 369.439 75.6551 369.041C75.5157 368.643 75.446 368.19 75.446 367.682C75.446 367.218 75.5096 366.79 75.6367 366.396C75.7679 366.003 75.9565 365.665 76.2025 365.382C76.4526 365.095 76.758 364.871 77.1188 364.711C77.4837 364.551 77.9019 364.471 78.3734 364.471C78.8121 364.471 79.1975 364.543 79.5296 364.687C79.8658 364.826 80.1631 365.025 80.4214 365.283L80.1323 365.677Z" fill="#FDFEFE"/>
    </g>
    <g opacity="0.8">
        <rect x="270" y="97" width="6" height="24" rx="3" fill="#FDFEFE"/>
        <circle cx="273" cy="128" r="3" fill="white" fill-opacity="0.5"/>
        <circle cx="273" cy="138" r="3" fill="white" fill-opacity="0.5"/>
        <circle cx="273" cy="148" r="3" fill="white" fill-opacity="0.5"/>
    </g>
    <rect x="208" width="68" height="24" rx="12" fill="#FDFEFE" fill-opacity="0.2"/>
    <path d="M229.275 9.20803L229.934 10.5905C229.959 10.6419 229.995 10.6862 230.039 10.7198C230.084 10.7533 230.136 10.775 230.19 10.783L231.708 11.012C231.771 11.0208 231.83 11.0478 231.879 11.09C231.928 11.1322 231.964 11.1878 231.983 11.2505C232.003 11.3132 232.005 11.3804 231.99 11.4444C231.974 11.5084 231.942 11.5665 231.896 11.612L230.798 12.724C230.759 12.764 230.73 12.8134 230.713 12.8678C230.696 12.9223 230.692 12.9802 230.702 13.0365L230.953 14.5555C230.965 14.6254 230.958 14.6973 230.933 14.7631C230.907 14.8289 230.864 14.886 230.809 14.9277C230.754 14.9694 230.689 14.9942 230.621 14.9991C230.553 15.004 230.485 14.9889 230.425 14.9555L229.108 14.2375C229.06 14.2109 229.006 14.197 228.951 14.197C228.896 14.197 228.841 14.2109 228.793 14.2375L227.477 14.955C227.417 14.9882 227.349 15.0031 227.281 14.9981C227.213 14.9931 227.148 14.9684 227.093 14.9267C227.038 14.885 226.995 14.8281 226.97 14.7624C226.944 14.6967 226.937 14.6248 226.949 14.555L227.199 13.0365C227.208 12.9802 227.205 12.9224 227.188 12.868C227.171 12.8135 227.142 12.7641 227.103 12.724L226.005 11.614C225.96 11.5681 225.929 11.51 225.914 11.4463C225.899 11.3826 225.901 11.3158 225.921 11.2535C225.94 11.1912 225.976 11.1358 226.024 11.0935C226.072 11.0511 226.13 11.0236 226.193 11.014L227.712 10.785C227.766 10.7769 227.818 10.7552 227.862 10.7216C227.906 10.6881 227.942 10.6438 227.967 10.5925L228.625 9.21003C228.655 9.14711 228.701 9.09414 228.758 9.05705C228.816 9.01996 228.882 9.00021 228.949 9C229.017 8.99979 229.083 9.01914 229.14 9.05588C229.198 9.09262 229.245 9.1453 229.275 9.20803ZM225.639 14.4975C225.639 14.3981 225.601 14.3027 225.534 14.2324C225.466 14.162 225.375 14.1225 225.279 14.1225H223.36C223.264 14.1225 223.173 14.162 223.105 14.2324C223.038 14.3027 223 14.3981 223 14.4975C223 14.597 223.038 14.6924 223.105 14.7627C223.173 14.833 223.264 14.8725 223.36 14.8725H225.279C225.375 14.8725 225.466 14.833 225.534 14.7627C225.601 14.6924 225.639 14.597 225.639 14.4975ZM224.32 12.3725H223.36C223.264 12.3725 223.173 12.333 223.105 12.2627C223.038 12.1924 223 12.097 223 11.9975C223 11.8981 223.038 11.8027 223.105 11.7324C223.173 11.662 223.264 11.6225 223.36 11.6225H224.32C224.415 11.6225 224.507 11.662 224.574 11.7324C224.642 11.8027 224.68 11.8981 224.68 11.9975C224.68 12.097 224.642 12.1924 224.574 12.2627C224.507 12.333 224.415 12.3725 224.32 12.3725ZM225.279 9.87253H223.36C223.264 9.87253 223.173 9.83302 223.105 9.7627C223.038 9.69237 223 9.59699 223 9.49753C223 9.39808 223.038 9.3027 223.105 9.23237C223.173 9.16204 223.264 9.12253 223.36 9.12253H225.279C225.375 9.12253 225.466 9.16204 225.534 9.23237C225.601 9.3027 225.639 9.39808 225.639 9.49753C225.639 9.59699 225.601 9.69237 225.534 9.7627C225.466 9.83302 225.375 9.87253 225.279 9.87253Z" fill="#FDFEFE"/>
    <path d="M237.448 12.212C237.664 12.212 237.853 12.184 238.016 12.128C238.181 12.072 238.319 11.9933 238.428 11.892C238.54 11.788 238.624 11.6653 238.68 11.524C238.736 11.38 238.764 11.2213 238.764 11.048C238.764 10.6987 238.655 10.424 238.436 10.224C238.22 10.024 237.891 9.924 237.448 9.924H236.56V12.212H237.448ZM237.448 9.256C237.816 9.256 238.136 9.29867 238.408 9.384C238.68 9.46933 238.905 9.59067 239.084 9.748C239.263 9.90267 239.395 10.0907 239.48 10.312C239.568 10.5333 239.612 10.7787 239.612 11.048C239.612 11.3173 239.565 11.5653 239.472 11.792C239.379 12.016 239.241 12.2093 239.06 12.372C238.879 12.5347 238.652 12.6613 238.38 12.752C238.111 12.84 237.8 12.884 237.448 12.884H236.56V15H235.708V9.256H237.448ZM241.921 10.872C242.219 10.872 242.489 10.9213 242.729 11.02C242.971 11.116 243.177 11.256 243.345 11.44C243.515 11.6213 243.646 11.8413 243.737 12.1C243.827 12.356 243.873 12.644 243.873 12.964C243.873 13.284 243.827 13.5733 243.737 13.832C243.646 14.0907 243.515 14.3107 243.345 14.492C243.177 14.6733 242.971 14.8133 242.729 14.912C242.489 15.008 242.219 15.056 241.921 15.056C241.619 15.056 241.347 15.008 241.105 14.912C240.865 14.8133 240.659 14.6733 240.489 14.492C240.318 14.3107 240.186 14.0907 240.093 13.832C240.002 13.5733 239.957 13.284 239.957 12.964C239.957 12.644 240.002 12.356 240.093 12.1C240.186 11.8413 240.318 11.6213 240.489 11.44C240.659 11.256 240.865 11.116 241.105 11.02C241.347 10.9213 241.619 10.872 241.921 10.872ZM241.921 14.448C242.305 14.448 242.591 14.3187 242.781 14.06C242.97 13.8013 243.065 13.4373 243.065 12.968C243.065 12.4987 242.97 12.1347 242.781 11.876C242.591 11.6147 242.305 11.484 241.921 11.484C241.531 11.484 241.241 11.6147 241.049 11.876C240.859 12.1347 240.765 12.4987 240.765 12.968C240.765 13.4373 240.859 13.8013 241.049 14.06C241.241 14.3187 241.531 14.448 241.921 14.448ZM245.523 14C245.651 14.168 245.789 14.2853 245.935 14.352C246.085 14.4187 246.251 14.452 246.435 14.452C246.793 14.452 247.069 14.324 247.263 14.068C247.461 13.8093 247.559 13.4333 247.559 12.94C247.559 12.6813 247.537 12.4613 247.491 12.28C247.449 12.096 247.385 11.9467 247.299 11.832C247.217 11.7147 247.114 11.6293 246.991 11.576C246.869 11.52 246.73 11.492 246.575 11.492C246.349 11.492 246.151 11.5427 245.983 11.644C245.818 11.7453 245.665 11.8893 245.523 12.076V14ZM245.483 11.544C245.569 11.4427 245.659 11.3507 245.755 11.268C245.854 11.1827 245.959 11.1107 246.071 11.052C246.183 10.9907 246.302 10.944 246.427 10.912C246.555 10.8773 246.691 10.86 246.835 10.86C247.067 10.86 247.277 10.9053 247.463 10.996C247.653 11.0867 247.814 11.22 247.947 11.396C248.081 11.572 248.183 11.7893 248.255 12.048C248.33 12.3067 248.367 12.604 248.367 12.94C248.367 13.2413 248.326 13.5213 248.243 13.78C248.163 14.036 248.047 14.2587 247.895 14.448C247.746 14.6373 247.562 14.7867 247.343 14.896C247.127 15.0027 246.883 15.056 246.611 15.056C246.369 15.056 246.161 15.016 245.987 14.936C245.814 14.856 245.659 14.744 245.523 14.6V16.364H244.743V10.936H245.211C245.321 10.936 245.389 10.988 245.415 11.092L245.483 11.544ZM252.623 10.936V15H252.155C252.049 15 251.979 14.948 251.947 14.844L251.891 14.436C251.803 14.5293 251.711 14.6147 251.615 14.692C251.519 14.7693 251.417 14.836 251.307 14.892C251.198 14.9453 251.082 14.9867 250.959 15.016C250.837 15.048 250.705 15.064 250.563 15.064C250.339 15.064 250.142 15.0267 249.971 14.952C249.803 14.8773 249.662 14.7733 249.547 14.64C249.433 14.504 249.346 14.3413 249.287 14.152C249.229 13.9627 249.199 13.7533 249.199 13.524V10.936H249.983V13.524C249.983 13.8147 250.05 14.0413 250.183 14.204C250.317 14.364 250.521 14.444 250.795 14.444C250.995 14.444 251.182 14.3973 251.355 14.304C251.529 14.208 251.691 14.0773 251.843 13.912V10.936H252.623ZM254.512 9.096V15H253.728V9.096H254.512ZM257.81 13.196C257.493 13.2067 257.223 13.232 257.002 13.272C256.781 13.3093 256.601 13.36 256.462 13.424C256.323 13.488 256.223 13.564 256.162 13.652C256.101 13.7373 256.07 13.8333 256.07 13.94C256.07 14.0413 256.086 14.1293 256.118 14.204C256.153 14.276 256.198 14.336 256.254 14.384C256.313 14.4293 256.381 14.4627 256.458 14.484C256.535 14.5053 256.619 14.516 256.71 14.516C256.83 14.516 256.939 14.504 257.038 14.48C257.139 14.456 257.234 14.4227 257.322 14.38C257.41 14.3347 257.494 14.28 257.574 14.216C257.654 14.152 257.733 14.0787 257.81 13.996V13.196ZM255.522 11.504C255.749 11.288 255.994 11.1267 256.258 11.02C256.525 10.9133 256.817 10.86 257.134 10.86C257.366 10.86 257.571 10.8987 257.75 10.976C257.929 11.0507 258.079 11.156 258.202 11.292C258.325 11.428 258.417 11.5907 258.478 11.78C258.542 11.9693 258.574 12.1787 258.574 12.408V15H258.226C258.149 15 258.09 14.988 258.05 14.964C258.01 14.9373 257.978 14.8893 257.954 14.82L257.87 14.464C257.766 14.56 257.663 14.6453 257.562 14.72C257.461 14.792 257.354 14.8547 257.242 14.908C257.133 14.9587 257.015 14.9973 256.89 15.024C256.765 15.0507 256.626 15.064 256.474 15.064C256.314 15.064 256.163 15.0427 256.022 15C255.883 14.9547 255.762 14.8867 255.658 14.796C255.554 14.7053 255.471 14.592 255.41 14.456C255.351 14.32 255.322 14.1613 255.322 13.98C255.322 13.82 255.365 13.6667 255.45 13.52C255.538 13.3707 255.679 13.2373 255.874 13.12C256.071 13.0027 256.327 12.9067 256.642 12.832C256.959 12.7573 257.349 12.7147 257.81 12.704V12.408C257.81 12.1013 257.745 11.872 257.614 11.72C257.483 11.568 257.291 11.492 257.038 11.492C256.867 11.492 256.723 11.5133 256.606 11.556C256.491 11.5987 256.391 11.6467 256.306 11.7C256.223 11.7507 256.15 11.7973 256.086 11.84C256.025 11.8827 255.961 11.904 255.894 11.904C255.841 11.904 255.794 11.8893 255.754 11.86C255.717 11.8307 255.686 11.796 255.662 11.756L255.522 11.504ZM260.354 11.716C260.485 11.4493 260.642 11.24 260.826 11.088C261.01 10.936 261.232 10.86 261.49 10.86C261.578 10.86 261.661 10.8707 261.738 10.892C261.818 10.9107 261.888 10.94 261.946 10.98L261.894 11.568C261.876 11.64 261.832 11.676 261.762 11.676C261.725 11.676 261.669 11.6693 261.594 11.656C261.52 11.64 261.44 11.632 261.354 11.632C261.229 11.632 261.118 11.6507 261.022 11.688C260.926 11.7227 260.84 11.776 260.762 11.848C260.688 11.9173 260.621 12.004 260.562 12.108C260.504 12.2093 260.449 12.3253 260.398 12.456V15H259.618V10.936H260.066C260.152 10.936 260.209 10.952 260.238 10.984C260.27 11.0133 260.293 11.0667 260.306 11.144L260.354 11.716Z" fill="#FDFEFE"/>
    <defs>
        <clipPath id="clip0_945_8290">
            <rect width="12" height="12" fill="white" transform="translate(0 330.15)"/>
        </clipPath>
        <clipPath id="clip1_945_8290">
            <rect width="12" height="12" fill="white" transform="translate(0 345.225)"/>
        </clipPath>
    </defs>
</svg>