<svg width="76" height="24" viewBox="0 0 76 24" fill="none" xmlns="http://www.w3.org/2000/svg">
    <path d="M0 0C1.0603 0.868816 2.17254 1.81514 2.58448 3.13279C2.79941 3.82135 2.80299 4.55678 2.86388 5.27779C3.00896 7.02263 2.40896 9.15141 3.30448 10.8764C3.64299 11.5289 3.97971 12.0535 4.4006 12.4879C5.21732 13.3279 6.25254 13.8091 7.5224 14.175C8.98926 14.5986 9.94031 14.6563 10.9128 15.0511C12.0806 15.5269 13.3863 16.9906 13.9236 18C14.0454 17.2051 14.0328 15.8189 13.8036 14.5392C13.6263 13.5424 13.2717 12.6159 13.0442 12.0264C12.4693 10.5394 11.16 9.36591 9.95105 8.26457C8.74031 7.16143 7.51523 5.92309 7.14448 4.31704C6.75045 5.20929 6.77732 6.24574 7.04239 7.18306C7.30568 8.12217 7.79284 8.97657 8.30508 9.80212C7.23941 9.30823 6.6215 8.16904 6.23642 7.04787C5.85314 5.9267 5.6203 4.73162 4.99702 3.72762C4.65851 3.18145 4.21433 2.711 3.73791 2.2838C2.64358 1.29782 1.37015 0.520929 0 0Z" fill="url(#paint0_radial_1177_2622)"/>
    <path d="M13.93 19.0554C12.5453 17.8896 10.8807 17.5816 10.1202 18.6825C9.73991 19.2339 9.3704 20.0023 9.01525 20.5816C7.79193 22.5805 5.01166 22.6978 4 22.3512C5.07982 22.9586 6.59731 24.0017 7.61076 24C8.65471 23.9982 9.56413 23.5082 10.0556 22.6435C10.4377 21.9714 10.7013 20.5956 11.1103 19.9463C11.4906 19.3389 11.5587 19.1219 12.1794 18.8068C12.3821 18.7035 12.4628 18.6895 12.7103 18.679C13.2179 18.6598 13.4673 18.7963 14 19.1114" fill="url(#paint1_radial_1177_2622)"/>
    <path d="M24 5C23.5381 6.02951 23.0396 7.1102 22.4217 7.5804C22.0984 7.82498 21.7712 7.88186 21.444 7.98803C20.6548 8.24589 19.7464 7.85152 18.913 8.79192C18.5992 9.14836 18.3413 9.49153 18.118 9.90675C17.6869 10.7106 17.4001 11.689 17.1499 12.8739C16.8593 14.2409 16.7688 15.1131 16.5244 16.0288C16.2318 17.1285 15.487 18.4215 15 18.9865C15.3464 19.0415 15.9662 18.9296 16.5533 18.6301C17.0113 18.3969 17.4482 18.0063 17.7273 17.7579C18.4299 17.1285 19.0458 15.8506 19.6213 14.6694C20.1967 13.4863 20.8358 12.2805 21.5787 11.8274C21.2072 11.5335 20.7434 11.6302 20.3065 11.9392C19.8695 12.2464 19.4538 12.7507 19.0496 13.2778C19.3441 12.271 19.8946 11.6245 20.4219 11.1941C20.9493 10.7637 21.4998 10.4661 21.9906 9.82522C22.2581 9.47636 22.4987 9.0384 22.722 8.57389C23.2378 7.50267 23.6747 6.28546 24 5Z" fill="url(#paint2_radial_1177_2622)"/>
    <path d="M14.0193 22.9555C13.8762 22.4749 14.5569 17.2112 15.1183 16.2109C15.3678 15.7674 16.3586 16.0409 15.8632 16.8674C14.3679 19.3487 14.1734 23.4733 14.0193 22.9555Z" fill="url(#paint3_radial_1177_2622)"/>
    <path d="M25.7131 12.1409C25.961 11.8779 26.2201 11.6376 26.4905 11.4197C26.7609 11.2019 27.0464 11.0179 27.3469 10.8676C27.6548 10.7099 27.9816 10.5897 28.3271 10.5071C28.6802 10.4169 29.0558 10.3718 29.4539 10.3718C30.0849 10.3718 30.637 10.477 31.1102 10.6873C31.591 10.8977 31.9929 11.1944 32.3159 11.5775C32.6389 11.9531 32.883 12.4075 33.0483 12.9409C33.2135 13.4742 33.2962 14.0639 33.2962 14.7099V22H31.0877V14.7099C31.0877 13.8911 30.8999 13.2564 30.5243 12.8056C30.1487 12.3474 29.5741 12.1183 28.8004 12.1183C28.237 12.1183 27.7074 12.2535 27.2117 12.524C26.7234 12.7869 26.2689 13.1474 25.8483 13.6056V22H23.6511V10.5521H24.9694C25.2774 10.5521 25.4689 10.6986 25.544 10.9916L25.7131 12.1409ZM41.14 10.3718C41.9813 10.3718 42.74 10.5108 43.416 10.7887C44.0996 11.0592 44.678 11.4535 45.1512 11.9718C45.632 12.4826 46.0001 13.1024 46.2555 13.831C46.5109 14.5521 46.6386 15.3634 46.6386 16.2648C46.6386 17.1662 46.5109 17.9812 46.2555 18.7099C46.0001 19.4385 45.632 20.0582 45.1512 20.569C44.678 21.0798 44.0996 21.4742 43.416 21.7521C42.74 22.0225 41.9813 22.1577 41.14 22.1577C40.2912 22.1577 39.525 22.0225 38.8414 21.7521C38.1653 21.4742 37.5869 21.0798 37.1062 20.569C36.6254 20.0582 36.2536 19.4385 35.9907 18.7099C35.7353 17.9812 35.6076 17.1662 35.6076 16.2648C35.6076 15.3634 35.7353 14.5521 35.9907 13.831C36.2536 13.1024 36.6254 12.4826 37.1062 11.9718C37.5869 11.4535 38.1653 11.0592 38.8414 10.7887C39.525 10.5108 40.2912 10.3718 41.14 10.3718ZM41.14 20.4451C42.2217 20.4451 43.0292 20.0808 43.5625 19.3521C44.0958 18.6235 44.3625 17.5981 44.3625 16.2761C44.3625 14.954 44.0958 13.9287 43.5625 13.2C43.0292 12.4639 42.2217 12.0958 41.14 12.0958C40.0433 12.0958 39.2245 12.4639 38.6836 13.2C38.1503 13.9287 37.8836 14.954 37.8836 16.2761C37.8836 17.5981 38.1503 18.6235 38.6836 19.3521C39.2245 20.0808 40.0433 20.4451 41.14 20.4451ZM58.6991 10.5521L54.0569 22H52.0738L47.4315 10.5521H49.2456C49.4184 10.5521 49.5611 10.5934 49.6738 10.6761C49.7864 10.7587 49.8616 10.8639 49.8991 10.9916L52.6371 18.0225C52.7348 18.3155 52.8174 18.6085 52.885 18.9014C52.9601 19.1869 53.0278 19.4723 53.0878 19.7577C53.1479 19.4723 53.2155 19.1869 53.2907 18.9014C53.3658 18.616 53.4559 18.323 53.5611 18.0225L56.3329 10.9916C56.378 10.8639 56.4569 10.7587 56.5695 10.6761C56.6822 10.5934 56.8174 10.5521 56.9752 10.5521H58.6991ZM67.6998 15.0028C67.6998 14.5671 67.6359 14.1653 67.5082 13.7972C67.3881 13.4291 67.2078 13.1099 66.9674 12.8395C66.727 12.569 66.4341 12.3587 66.0885 12.2085C65.743 12.0582 65.3449 11.9831 64.8942 11.9831C63.9702 11.9831 63.2416 12.2498 62.7083 12.7831C62.1824 13.3164 61.8482 14.0563 61.7054 15.0028H67.6998ZM69.5139 20.3662C69.2435 20.6817 68.9317 20.9559 68.5787 21.1887C68.2256 21.4141 67.85 21.5981 67.4519 21.7408C67.0538 21.8836 66.6406 21.9887 66.2125 22.0563C65.7918 22.1239 65.3749 22.1577 64.9618 22.1577C64.173 22.1577 63.4406 22.0263 62.7646 21.7634C62.0961 21.493 61.5139 21.1023 61.0181 20.5916C60.5299 20.0732 60.1468 19.4347 59.8688 18.6761C59.5984 17.9099 59.4632 17.031 59.4632 16.0394C59.4632 15.2432 59.5871 14.5033 59.835 13.8197C60.0829 13.1287 60.436 12.5277 60.8942 12.0169C61.3599 11.5061 61.927 11.1042 62.5956 10.8113C63.2641 10.5183 64.0153 10.3718 64.8491 10.3718C65.5477 10.3718 66.1899 10.4883 66.7759 10.7211C67.3693 10.9465 67.8801 11.277 68.3082 11.7127C68.7364 12.1484 69.0707 12.6855 69.3111 13.324C69.559 13.9625 69.6829 14.6911 69.6829 15.5099C69.6829 15.8479 69.6453 16.077 69.5702 16.1972C69.4951 16.3099 69.3561 16.3662 69.1533 16.3662H61.6491C61.6716 17.0498 61.7693 17.647 61.9421 18.1578C62.1148 18.661 62.3514 19.0817 62.6519 19.4197C62.9599 19.7577 63.3242 20.0094 63.7449 20.1747C64.1655 20.3399 64.635 20.4225 65.1533 20.4225C65.6416 20.4225 66.0622 20.3662 66.4153 20.2535C66.7759 20.1408 67.0838 20.0207 67.3392 19.893C67.6021 19.7577 67.82 19.6338 67.9928 19.5211C68.173 19.4085 68.3308 19.3521 68.466 19.3521C68.6463 19.3521 68.7852 19.4197 68.8829 19.5549L69.5139 20.3662ZM74.298 5.36904V22H72.0896V5.36904H74.298Z" fill="url(#paint4_radial_1177_2622)"/>
    <defs>
        <radialGradient id="paint0_radial_1177_2622" cx="0" cy="0" r="1" gradientUnits="userSpaceOnUse" gradientTransform="translate(13.7278 0.281276) rotate(130.044) scale(41.9185 394.728)">
            <stop stop-color="#FF627E"/>
            <stop offset="0.9999" stop-color="#F4CD76"/>
            <stop offset="1" stop-color="#FFF8F8" stop-opacity="0"/>
        </radialGradient>
        <radialGradient id="paint1_radial_1177_2622" cx="0" cy="0" r="1" gradientUnits="userSpaceOnUse" gradientTransform="translate(13.8055 18.0938) rotate(150.957) scale(22.0345 178.793)">
            <stop stop-color="#FF627E"/>
            <stop offset="0.9999" stop-color="#F4CD76"/>
            <stop offset="1" stop-color="#FFF8F8" stop-opacity="0"/>
        </radialGradient>
        <radialGradient id="paint2_radial_1177_2622" cx="0" cy="0" r="1" gradientUnits="userSpaceOnUse" gradientTransform="translate(23.825 5.21877) rotate(124.785) scale(30.3901 272.233)">
            <stop stop-color="#FF627E"/>
            <stop offset="0.9999" stop-color="#F4CD76"/>
            <stop offset="1" stop-color="#FFF8F8" stop-opacity="0"/>
            </radialGradient>
        <radialGradient id="paint3_radial_1177_2622" cx="0" cy="0" r="1" gradientUnits="userSpaceOnUse" gradientTransform="translate(15.9611 16.1094) rotate(107.157) scale(13.0609 70.3815)">
            <stop stop-color="#FF627E"/>
            <stop offset="0.9999" stop-color="#F4CD76"/>
            <stop offset="1" stop-color="#FFF8F8" stop-opacity="0"/>
        </radialGradient>
        <radialGradient id="paint4_radial_1177_2622" cx="0" cy="0" r="1" gradientUnits="userSpaceOnUse" gradientTransform="translate(74.95 6.25002) rotate(164.666) scale(107.865 525.939)">
            <stop stop-color="#FF627E"/>
            <stop offset="0.9999" stop-color="#F4CD76"/>
            <stop offset="1" stop-color="#FFF8F8" stop-opacity="0"/>
        </radialGradient>
    </defs>
</svg>