<svg width="40" height="40" viewBox="0 0 40 40" fill="none" xmlns="http://www.w3.org/2000/svg">
    <g opacity="0.8">
        <circle cx="20" cy="20" r="20" fill="#F5F6FA"/>
        <path d="M29.996 17.3356H29.96C29.6739 17.3339 29.3947 17.2475 29.1577 17.0873C28.9207 16.9272 28.7364 16.7004 28.628 16.4356L28.6271 16.4311L28.6245 16.4272L28.6206 16.4247L28.616 16.4239C28.5093 16.16 28.4819 15.8706 28.5374 15.5913C28.5928 15.3121 28.7286 15.0551 28.928 14.8519L28.964 14.8159C29.3386 14.4398 29.549 13.9306 29.549 13.3998C29.549 12.869 29.3386 12.3598 28.964 11.9838L28.016 11.048C27.64 10.6733 27.1309 10.4629 26.6 10.4629C26.0692 10.4629 25.56 10.6733 25.184 11.048L25.172 11.072C24.9642 11.2721 24.7024 11.4072 24.4188 11.4605C24.1353 11.5138 23.8423 11.483 23.576 11.372C23.3075 11.2677 23.0768 11.0846 22.914 10.8469C22.7513 10.6093 22.6641 10.328 22.6639 10.0399V10.0039C22.6648 9.7415 22.614 9.48151 22.5143 9.23877C22.4147 8.99603 22.2682 8.77531 22.0832 8.58922C21.8982 8.40312 21.6784 8.2553 21.4362 8.1542C21.1941 8.0531 20.9344 8.0007 20.672 8H19.328C19.0656 8.0007 18.8059 8.0531 18.5638 8.1542C18.3216 8.2553 18.1018 8.40312 17.9168 8.58922C17.7318 8.77531 17.5853 8.99603 17.4857 9.23877C17.386 9.48151 17.3352 9.7415 17.3361 10.0039V10.0399C17.3359 10.3263 17.2501 10.6062 17.0897 10.8436C16.9294 11.0809 16.7017 11.265 16.4361 11.372C16.2549 11.4529 16.0584 11.4937 15.86 11.4919C15.4778 11.4924 15.1111 11.3414 14.84 11.072L14.816 11.048C14.44 10.6733 13.9308 10.4629 13.4 10.4629C12.8691 10.4629 12.36 10.6733 11.984 11.048L11.036 11.9838C10.6614 12.3598 10.451 12.869 10.451 13.3998C10.451 13.9306 10.6614 14.4398 11.036 14.8159L11.072 14.8519C11.2732 15.0565 11.4096 15.3158 11.4642 15.5975C11.5188 15.8792 11.4893 16.1708 11.3792 16.4358C11.2691 16.7007 11.0833 16.9274 10.8452 17.0874C10.607 17.2475 10.327 17.3338 10.04 17.3356H10.004C9.47273 17.3366 8.96353 17.5481 8.58792 17.9237C8.2123 18.2994 8.00089 18.8086 8 19.3399V20.672C8.00097 21.2031 8.21241 21.7123 8.58802 22.0879C8.96363 22.4635 9.47278 22.6749 10.004 22.6758H10.04C10.327 22.6735 10.6079 22.7583 10.8457 22.919C11.0835 23.0797 11.267 23.3087 11.372 23.5758C11.588 24.1158 11.48 24.7638 11.072 25.1719L11.048 25.1836C10.6732 25.5621 10.463 26.0731 10.463 26.6057C10.463 27.1383 10.6732 27.6493 11.048 28.0278L11.984 28.9638C12.36 29.3383 12.8692 29.5487 13.4 29.5487C13.9308 29.5487 14.4399 29.3383 14.816 28.9638L14.84 28.9397C15.0404 28.7359 15.2975 28.5971 15.5779 28.5414C15.8583 28.4857 16.149 28.5158 16.412 28.6277C16.6826 28.734 16.9152 28.9189 17.0798 29.1585C17.2445 29.398 17.3337 29.6814 17.3361 29.9721V30.0079C17.3354 30.2696 17.3865 30.529 17.4864 30.7709C17.5862 31.0129 17.7329 31.2328 17.918 31.4179C18.1031 31.603 18.323 31.7497 18.5649 31.8496C18.8069 31.9495 19.0662 32.0006 19.328 32H20.672C20.9338 32.0006 21.1931 31.9495 21.4351 31.8496C21.677 31.7497 21.8969 31.603 22.082 31.4179C22.2671 31.2328 22.4138 31.0129 22.5136 30.7709C22.6135 30.529 22.6646 30.2696 22.6639 30.0079V29.9721C22.6663 29.6814 22.7555 29.398 22.9202 29.1585C23.0848 28.9189 23.3174 28.734 23.588 28.6277C23.851 28.5158 24.1417 28.4857 24.4221 28.5414C24.7025 28.5971 24.9596 28.7359 25.16 28.9397L25.184 28.9638C25.5601 29.3383 26.0692 29.5487 26.6 29.5487C27.1308 29.5487 27.64 29.3383 28.016 28.9638L28.952 28.0278C29.3268 27.6493 29.537 27.1383 29.537 26.6057C29.537 26.0731 29.3268 25.5621 28.952 25.1836L28.928 25.1719C28.52 24.7638 28.412 24.1158 28.628 23.5758C28.733 23.3087 28.9165 23.0797 29.1543 22.919C29.3921 22.7583 29.673 22.6735 29.96 22.6758H29.996C30.5272 22.6749 31.0364 22.4635 31.412 22.0879C31.7876 21.7123 31.999 21.2031 32 20.672V19.3399C31.9991 18.8086 31.7877 18.2994 31.4121 17.9237C31.0365 17.5481 30.5273 17.3366 29.996 17.3356ZM20 24.1999C19.1693 24.1999 18.3573 23.9535 17.6666 23.492C16.9759 23.0305 16.4376 22.3746 16.1197 21.6071C15.8018 20.8397 15.7186 19.9952 15.8807 19.1805C16.0427 18.3658 16.4427 17.6174 17.0301 17.03C17.6175 16.4427 18.3659 16.0427 19.1806 15.8806C19.9953 15.7185 20.8398 15.8017 21.6073 16.1196C22.3747 16.4375 23.0307 16.9758 23.4922 17.6665C23.9537 18.3572 24.2 19.1692 24.2 19.9999C24.1988 21.1134 23.7559 22.181 22.9685 22.9684C22.1811 23.7557 21.1135 24.1986 20 24.1999Z" fill="#C8CDDF"/>
    </g>
</svg>